<svg width="50" height="50" viewBox="0 0 50 50" fill="none" xmlns="http://www.w3.org/2000/svg">
<path d="M20.7176 28.5466L15.5397 23.5794C15.2607 23.3117 14.8823 23.1614 14.4877 23.1614C14.0932 23.1614 13.7148 23.3117 13.4357 23.5794C13.1567 23.8471 13 24.2101 13 24.5886C13 24.776 13.0385 24.9616 13.1132 25.1347C13.188 25.3079 13.2976 25.4652 13.4357 25.5978L19.673 31.5813C20.255 32.1396 21.1951 32.1396 21.777 31.5813L37.5643 16.4364C37.8433 16.1687 38 15.8057 38 15.4272C38 15.0487 37.8433 14.6857 37.5643 14.418C37.2853 14.1504 36.9068 14 36.5123 14C36.1177 14 35.7393 14.1504 35.4603 14.418L20.7176 28.5466Z" fill="#2BA84D"/>
<path fill-rule="evenodd" clip-rule="evenodd" d="M25 50C38.8071 50 50 38.8071 50 25C50 11.1929 38.8071 0 25 0C11.1929 0 0 11.1929 0 25C0 38.8071 11.1929 50 25 50Z" fill="#34C759" fill-opacity="0.2"/>
</svg>
