<svg width="42" height="42" viewBox="0 0 42 42" fill="none" xmlns="http://www.w3.org/2000/svg">
<circle cx="21" cy="21" r="19.75" stroke="#D0C7D0" stroke-width="1.5"/>
<path d="M23.0451 18.0395L23.9589 18.9535L14.9594 27.9542H14.0455V27.0403L23.0451 18.0395ZM26.621 12.0588C26.3727 12.0588 26.1144 12.1582 25.9257 12.3469L24.1079 14.165L27.8329 17.8905L29.6507 16.0724C29.7428 15.9805 29.8158 15.8713 29.8657 15.7512C29.9155 15.631 29.9412 15.5021 29.9412 15.372C29.9412 15.2419 29.9155 15.1131 29.8657 14.9929C29.8158 14.8727 29.7428 14.7635 29.6507 14.6716L27.3263 12.3469C27.1276 12.1482 26.8793 12.0588 26.621 12.0588ZM23.0451 15.228L12.0588 26.2157V29.9412H15.7838L26.77 18.9535L23.0451 15.228Z" fill="white"/>
</svg>
