<svg width="51" height="51" viewBox="0 0 51 51" fill="none" xmlns="http://www.w3.org/2000/svg">
<path d="M34.5909 15.9545H16.4091C15.1591 15.9545 14.1477 17.0284 14.1477 18.3409L14.1364 32.6591C14.1364 33.9716 15.1591 35.0454 16.4091 35.0454H34.5909C35.8409 35.0454 36.8636 33.9716 36.8636 32.6591V18.3409C36.8636 17.0284 35.8409 15.9545 34.5909 15.9545ZM34.5909 20.7273L25.5 26.6932L16.4091 20.7273V18.3409L25.5 24.3068L34.5909 18.3409V20.7273Z" fill="#007AFF"/>
<path fill-rule="evenodd" clip-rule="evenodd" d="M25.5 50.5C39.3071 50.5 50.5 39.3071 50.5 25.5C50.5 11.6929 39.3071 0.5 25.5 0.5C11.6929 0.5 0.5 11.6929 0.5 25.5C0.5 39.3071 11.6929 50.5 25.5 50.5Z" fill="#007AFF" fill-opacity="0.2"/>
</svg>
