<svg width="51" height="51" viewBox="0 0 51 51" fill="none" xmlns="http://www.w3.org/2000/svg">
<path fill-rule="evenodd" clip-rule="evenodd" d="M25.5 50.5C39.3071 50.5 50.5 39.3071 50.5 25.5C50.5 11.6929 39.3071 0.5 25.5 0.5C11.6929 0.5 0.5 11.6929 0.5 25.5C0.5 39.3071 11.6929 50.5 25.5 50.5Z" fill="#007AFF" fill-opacity="0.2"/>
<path fill-rule="evenodd" clip-rule="evenodd" d="M25.5005 16.7162C31.8439 16.7162 36.987 20.924 36.987 26.1143C36.987 31.3047 31.8439 35.5125 25.5005 35.5125C24.4567 35.5125 22.3504 35.0963 22.3389 35.1148C21.6368 36.2519 17.7988 36.9413 17.4327 36.9827C17.068 37.0257 16.7722 36.6895 17.091 36.4936C17.4083 36.2977 18.5957 35.2421 18.8857 34.5857C19.1758 33.9292 18.8053 33.4887 18.544 33.2069C15.7901 31.4906 14.014 29.165 14.014 26.1143C14.014 20.924 19.1571 16.7162 25.5005 16.7162Z" fill="#007AFF"/>
</svg>
