<svg width="50" height="50" viewBox="0 0 50 50" fill="none" xmlns="http://www.w3.org/2000/svg">
<path fill-rule="evenodd" clip-rule="evenodd" d="M25 50C38.8071 50 50 38.8071 50 25C50 11.1929 38.8071 0 25 0C11.1929 0 0 11.1929 0 25C0 38.8071 11.1929 50 25 50Z" fill="#9AE1FF"/>
<path d="M25.7615 32.9158C25.6011 32.8174 25.3989 32.8174 25.2385 32.9158L18.791 36.8722C18.4121 37.1047 17.941 36.7642 18.0428 36.3315L19.7879 28.9143C19.8305 28.7333 19.7692 28.5437 19.6287 28.422L13.8987 23.4544C13.564 23.1643 13.7439 22.6145 14.1854 22.5783L21.7131 21.9619C21.9002 21.9466 22.0629 21.8278 22.1345 21.6543L25.0378 14.6198C25.208 14.2075 25.792 14.2075 25.9622 14.6198L28.8655 21.6543C28.9371 21.8278 29.0998 21.9466 29.2869 21.9619L36.8125 22.5781C37.2542 22.6143 37.434 23.1648 37.0987 23.4547L31.3545 28.4216C31.2135 28.5435 31.152 28.7338 31.195 28.9152L32.9542 36.3289C33.057 36.7618 32.5855 37.1032 32.2063 36.8705L25.7615 32.9158Z" fill="#00B2FF"/>
</svg>
