<svg width="46" height="46" viewBox="0 0 46 46" fill="none" xmlns="http://www.w3.org/2000/svg">
<path fill-rule="evenodd" clip-rule="evenodd" d="M23 46C35.7025 46 46 35.7025 46 23C46 10.2975 35.7025 0 23 0C10.2975 0 0 10.2975 0 23C0 35.7025 10.2975 46 23 46Z" fill="#9AE1FF"/>
<path d="M23.7215 30.2954C23.561 30.197 23.3589 30.197 23.1985 30.2954L17.3695 33.8722C16.9907 34.1047 16.5195 33.7642 16.6213 33.3315L18.1993 26.6247C18.2419 26.4437 18.1806 26.2541 18.0401 26.1324L12.8586 21.6404C12.5239 21.3503 12.7039 20.8004 13.1453 20.7643L19.9517 20.2069C20.1387 20.1916 20.3014 20.0728 20.373 19.8993L22.9978 13.5398C23.168 13.1275 23.752 13.1275 23.9221 13.5398L26.5469 19.8993C26.6185 20.0728 26.7812 20.1916 26.9683 20.2069L33.7725 20.7641C34.2142 20.8003 34.394 21.3508 34.0587 21.6407L28.8645 26.1319C28.7234 26.2539 28.662 26.4442 28.705 26.6256L30.2956 33.3289C30.3984 33.7618 29.9269 34.1032 29.5476 33.8705L23.7215 30.2954Z" fill="white"/>
</svg>
