<svg width="51" height="51" viewBox="0 0 51 51" fill="none" xmlns="http://www.w3.org/2000/svg">
<path fill-rule="evenodd" clip-rule="evenodd" d="M25.5 50.5C39.3071 50.5 50.5 39.3071 50.5 25.5C50.5 11.6929 39.3071 0.5 25.5 0.5C11.6929 0.5 0.5 11.6929 0.5 25.5C0.5 39.3071 11.6929 50.5 25.5 50.5Z" fill="#34C759" fill-opacity="0.2"/>
<path fill-rule="evenodd" clip-rule="evenodd" d="M21.6551 30.2943C21.6551 30.2943 30.4884 38.357 35.4667 35.8153C35.4667 35.8153 36.8425 34.6882 36.9758 33.5809C37.109 32.4736 35.9659 31.731 35.5242 31.4786C34.4667 30.8716 33.3789 30.3061 32.2998 29.7302C31.9588 29.5477 31.5891 29.342 31.1862 29.4429C30.9531 29.5024 30.7128 29.5671 30.4999 29.6681C29.7402 30.0253 29.1172 30.3617 28.2942 30.6969C28.2942 30.6969 27.4541 30.4513 24.3204 27.5977C20.991 24.5655 21.4409 23.4381 21.4409 23.4381C21.874 22.8855 22.2682 22.307 22.5963 21.6975C22.7373 21.4348 22.9315 21.1811 23.0135 20.8951C23.097 20.6078 22.9258 20.402 22.7819 20.1497C22.4625 19.5854 22.1215 19.0315 21.7675 18.4841C21.1575 17.5381 20.5345 16.5519 19.7561 15.7069C19.6741 15.6188 19.4827 15.3548 19.3259 15.3652C17.595 15.47 15.89 17.0269 15.89 17.0269C13.2109 21.4322 21.6551 30.2943 21.6551 30.2943Z" fill="#34C759"/>
</svg>
