<svg width="142" height="142" viewBox="0 0 142 142" fill="none" xmlns="http://www.w3.org/2000/svg">
<circle cx="71" cy="71" r="71" fill="#5B5959"/>
<path d="M70.5 33C75.6054 33 80.5017 35.0281 84.1118 38.6382C87.7219 42.2483 89.75 47.1446 89.75 52.25C89.75 57.3554 87.7219 62.2517 84.1118 65.8618C80.5017 69.4719 75.6054 71.5 70.5 71.5C65.3946 71.5 60.4983 69.4719 56.8882 65.8618C53.2781 62.2517 51.25 57.3554 51.25 52.25C51.25 47.1446 53.2781 42.2483 56.8882 38.6382C60.4983 35.0281 65.3946 33 70.5 33ZM70.5 81.125C91.7713 81.125 109 89.7394 109 100.375V110H32V100.375C32 89.7394 49.2288 81.125 70.5 81.125Z" fill="white"/>
</svg>
