<svg width="33" height="33" viewBox="0 0 33 33" fill="none" xmlns="http://www.w3.org/2000/svg">
<g id="Group 72">
<g id="Group 70">
<rect id="Rectangle 10" x="0.987793" y="0.25" width="31.8133" height="31.8133" rx="15.9066" stroke="#D0C7D0" stroke-width="0.5"/>
</g>
<g id="Group 95">
<path id="Vector" d="M10.1625 17.503C10.9061 17.503 11.5089 16.9002 11.5089 16.1566C11.5089 15.413 10.9061 14.8102 10.1625 14.8102C9.41897 14.8102 8.81616 15.413 8.81616 16.1566C8.81616 16.9002 9.41897 17.503 10.1625 17.503Z" stroke="#00B2FF" stroke-linecap="round" stroke-linejoin="round"/>
<path id="Vector_2" d="M16.8942 17.503C17.6378 17.503 18.2406 16.9002 18.2406 16.1566C18.2406 15.413 17.6378 14.8102 16.8942 14.8102C16.1507 14.8102 15.5479 15.413 15.5479 16.1566C15.5479 16.9002 16.1507 17.503 16.8942 17.503Z" stroke="#00B2FF" stroke-linecap="round" stroke-linejoin="round"/>
<path id="Vector_3" d="M23.6262 17.503C24.3698 17.503 24.9726 16.9002 24.9726 16.1566C24.9726 15.413 24.3698 14.8102 23.6262 14.8102C22.8826 14.8102 22.2798 15.413 22.2798 16.1566C22.2798 16.9002 22.8826 17.503 23.6262 17.503Z" stroke="#00B2FF" stroke-linecap="round" stroke-linejoin="round"/>
</g>
</g>
</svg>
