<svg width="29" height="29" viewBox="0 0 29 29" fill="none" xmlns="http://www.w3.org/2000/svg">
<g id="add-svgrepo-com 1">
<path id="Vector" d="M8.30288 13.2785C7.81794 13.2785 7.4248 13.6717 7.4248 14.1566C7.4248 14.6415 7.81794 15.0347 8.30288 15.0347V13.2785ZM14.1567 15.0347C14.6417 15.0347 15.0348 14.6415 15.0348 14.1566C15.0348 13.6717 14.6417 13.2785 14.1567 13.2785V15.0347ZM14.1567 13.2785C13.6718 13.2785 13.2787 13.6717 13.2787 14.1566C13.2787 14.6415 13.6718 15.0347 14.1567 15.0347V13.2785ZM20.0106 15.0347C20.4955 15.0347 20.8887 14.6415 20.8887 14.1566C20.8887 13.6717 20.4955 13.2785 20.0106 13.2785V15.0347ZM15.0348 14.1566C15.0348 13.6717 14.6417 13.2785 14.1567 13.2785C13.6718 13.2785 13.2787 13.6717 13.2787 14.1566H15.0348ZM13.2787 20.0104C13.2787 20.4954 13.6718 20.8885 14.1567 20.8885C14.6417 20.8885 15.0348 20.4954 15.0348 20.0104H13.2787ZM13.2787 14.1566C13.2787 14.6415 13.6718 15.0347 14.1567 15.0347C14.6417 15.0347 15.0348 14.6415 15.0348 14.1566H13.2787ZM15.0348 8.30274C15.0348 7.81779 14.6417 7.42466 14.1567 7.42466C13.6718 7.42466 13.2787 7.81779 13.2787 8.30274H15.0348ZM8.30288 15.0347H14.1567V13.2785H8.30288V15.0347ZM14.1567 15.0347H20.0106V13.2785H14.1567V15.0347ZM14.1567 14.1566H13.2787V14.1578C13.2787 14.1579 13.2787 14.1592 13.2787 14.1592C13.2787 14.159 13.2787 14.1593 13.2787 14.1592C13.2787 14.1592 13.2787 14.1604 13.2787 14.1606C13.2787 14.1604 13.2787 14.1607 13.2787 14.1606C13.2787 14.1607 13.2787 14.1616 13.2787 14.1617C13.2787 14.1619 13.2787 14.1629 13.2787 14.163C13.2787 14.1631 13.2787 14.1641 13.2787 14.1642C13.2787 14.1643 13.2787 14.1654 13.2787 14.1656C13.2787 14.1657 13.2787 14.1668 13.2787 14.167C13.2787 14.1671 13.2787 14.1684 13.2787 14.1685C13.2787 14.1683 13.2787 14.1688 13.2787 14.1685C13.2787 14.1688 13.2787 14.1695 13.2787 14.1697C13.2787 14.1695 13.2787 14.1699 13.2787 14.1697C13.2787 14.1699 13.2787 14.1708 13.2787 14.1709C13.2787 14.1706 13.2787 14.1711 13.2787 14.1709C13.2787 14.1711 13.2787 14.1719 13.2787 14.1722C13.2787 14.1719 13.2787 14.1724 13.2787 14.1722C13.2787 14.1724 13.2787 14.1733 13.2787 14.1736C13.2787 14.1733 13.2787 14.1738 13.2787 14.1736C13.2787 14.1738 13.2787 14.1747 13.2787 14.175C13.2787 14.1746 13.2787 14.1752 13.2787 14.175C13.2787 14.1752 13.2787 14.1763 13.2787 14.1765C13.2787 14.1763 13.2787 14.1767 13.2787 14.1765C13.2787 14.1767 13.2787 14.1778 13.2787 14.1781C13.2787 14.1778 13.2787 14.1784 13.2787 14.1781C13.2787 14.1784 13.2787 14.1795 13.2787 14.1798C13.2787 14.1795 13.2787 14.18 13.2787 14.1798C13.2787 14.1801 13.2787 14.1812 13.2787 14.1815C13.2787 14.1812 13.2787 14.1819 13.2787 14.1815C13.2787 14.1818 13.2787 14.183 13.2787 14.1834C13.2787 14.183 13.2787 14.1836 13.2787 14.1834C13.2787 14.1837 13.2787 14.1849 13.2787 14.1853C13.2787 14.1849 13.2787 14.1856 13.2787 14.1853C13.2787 14.1856 13.2787 14.187 13.2787 14.1874C13.2787 14.187 13.2787 14.1877 13.2787 14.1874C13.2787 14.1877 13.2787 14.1891 13.2787 14.1895C13.2787 14.1891 13.2787 14.1898 13.2787 14.1895C13.2787 14.1898 13.2787 14.1912 13.2787 14.1917C13.2787 14.1914 13.2787 14.1921 13.2787 14.1917C13.2787 14.1922 13.2787 14.1936 13.2787 14.1939C13.2787 14.1944 13.2787 14.1948 13.2787 14.1952C13.2787 14.1956 13.2787 14.1959 13.2787 14.1964C13.2787 14.1969 13.2787 14.1972 13.2787 14.1977C13.2787 14.198 13.2787 14.1985 13.2787 14.1989C13.2787 14.1993 13.2787 14.1998 13.2787 14.2003C13.2787 14.2006 13.2787 14.2011 13.2787 14.2015C13.2787 14.202 13.2787 14.2024 13.2787 14.2028C13.2787 14.2033 13.2787 14.2038 13.2787 14.2042C13.2787 14.2047 13.2787 14.2052 13.2787 14.2056C13.2787 14.2061 13.2787 14.2066 13.2787 14.207C13.2787 14.2075 13.2787 14.2081 13.2787 14.2086C13.2787 14.209 13.2787 14.2095 13.2787 14.21C13.2787 14.2106 13.2787 14.211 13.2787 14.2115C13.2787 14.2121 13.2787 14.2125 13.2787 14.213C13.2787 14.2136 13.2787 14.2141 13.2787 14.2147C13.2787 14.2151 13.2787 14.2157 13.2787 14.2162C13.2787 14.2168 13.2787 14.2174 13.2787 14.2178C13.2787 14.2184 13.2787 14.219 13.2787 14.2196C13.2787 14.22 13.2787 14.2206 13.2787 14.2212C13.2787 14.2218 13.2787 14.2224 13.2787 14.223C13.2787 14.2234 13.2787 14.224 13.2787 14.2246C13.2787 14.2252 13.2787 14.2259 13.2787 14.2265C13.2787 14.2271 13.2787 14.2277 13.2787 14.2282C13.2787 14.2288 13.2787 14.2294 13.2787 14.2301C13.2787 14.2307 13.2787 14.2313 13.2787 14.232C13.2787 14.2326 13.2787 14.2333 13.2787 14.2339C13.2787 14.2344 13.2787 14.2351 13.2787 14.2357C13.2787 14.2364 13.2787 14.2371 13.2787 14.2377C13.2787 14.2384 13.2787 14.2391 13.2787 14.2397C13.2787 14.2404 13.2787 14.2411 13.2787 14.2418C13.2787 14.2424 13.2787 14.2431 13.2787 14.2438C13.2787 14.2445 13.2787 14.2452 13.2787 14.2459C13.2787 14.2466 13.2787 14.2473 13.2787 14.248C13.2787 14.2487 13.2787 14.2495 13.2787 14.2502C13.2787 14.251 13.2787 14.2517 13.2787 14.2524C13.2787 14.2532 13.2787 14.2539 13.2787 14.2546C13.2787 14.2554 13.2787 14.2561 13.2787 14.2569C13.2787 14.2576 13.2787 14.2584 13.2787 14.2591C13.2787 14.26 13.2787 14.2608 13.2787 14.2615C13.2787 14.2623 13.2787 14.2631 13.2787 14.2639C13.2787 14.2646 13.2787 14.2655 13.2787 14.2663C13.2787 14.2671 13.2787 14.2679 13.2787 14.2687C13.2787 14.2696 13.2787 14.2704 13.2787 14.2712C13.2787 14.272 13.2787 14.2728 13.2787 14.2737C13.2787 14.2746 13.2787 14.2754 13.2787 14.2762C13.2787 14.2772 13.2787 14.278 13.2787 14.2788C13.2787 14.2798 13.2787 14.2806 13.2787 14.2815C13.2787 14.2823 13.2787 14.2833 13.2787 14.2841C13.2787 14.285 13.2787 14.286 13.2787 14.2868C13.2787 14.2877 13.2787 14.2886 13.2787 14.2896C13.2787 14.2905 13.2787 14.2913 13.2787 14.2923C13.2787 14.2932 13.2787 14.2942 13.2787 14.2951C13.2787 14.296 13.2787 14.2971 13.2787 14.298C13.2787 14.299 13.2787 14.2999 13.2787 14.3008C13.2787 14.3019 13.2787 14.3028 13.2787 14.3038C13.2787 14.3048 13.2787 14.3057 13.2787 14.3068C13.2787 14.3077 13.2787 14.3088 13.2787 14.3097C13.2787 14.3108 13.2787 14.3118 13.2787 14.3128C13.2787 14.3138 13.2787 14.3149 13.2787 14.3159C13.2787 14.3169 13.2787 14.3179 13.2787 14.319C13.2787 14.32 13.2787 14.3211 13.2787 14.3221C13.2787 14.3232 13.2787 14.3242 13.2787 14.3254C13.2787 14.3265 13.2787 14.3275 13.2787 14.3286C13.2787 14.3297 13.2787 14.3308 13.2787 14.3319C13.2787 14.333 13.2787 14.3341 13.2787 14.3352C13.2787 14.3363 13.2787 14.3375 13.2787 14.3386C13.2787 14.3397 13.2787 14.3409 13.2787 14.342C13.2787 14.3432 13.2787 14.3443 13.2787 14.3454C13.2787 14.3466 13.2787 14.3478 13.2787 14.3489C13.2787 14.3501 13.2787 14.3513 13.2787 14.3525C13.2787 14.3537 13.2787 14.3549 13.2787 14.3561C13.2787 14.3573 13.2787 14.3585 13.2787 14.3597C13.2787 14.3609 13.2787 14.3622 13.2787 14.3633C13.2787 14.3646 13.2787 14.3658 13.2787 14.3671C13.2787 14.3684 13.2787 14.3695 13.2787 14.3708C13.2787 14.3721 13.2787 14.3734 13.2787 14.3747C13.2787 14.376 13.2787 14.3773 13.2787 14.3786C13.2787 14.3799 13.2787 14.3811 13.2787 14.3824C13.2787 14.3837 13.2787 14.385 13.2787 14.3863C13.2787 14.3877 13.2787 14.389 13.2787 14.3904C13.2787 14.3917 13.2787 14.393 13.2787 14.3944C13.2787 14.3957 13.2787 14.3971 13.2787 14.3985C13.2787 14.3998 13.2787 14.4012 13.2787 14.4026C13.2787 14.404 13.2787 14.4054 13.2787 14.4068C13.2787 14.4082 13.2787 14.4096 13.2787 14.411C13.2787 14.4124 13.2787 14.4138 13.2787 14.4152C13.2787 14.4166 13.2787 14.418 13.2787 14.4195C13.2787 14.4209 13.2787 14.4225 13.2787 14.4239C13.2787 14.4254 13.2787 14.4268 13.2787 14.4283C13.2787 14.4297 13.2787 14.4312 13.2787 14.4328C13.2787 14.4342 13.2787 14.4357 13.2787 14.4372C13.2787 14.4387 13.2787 14.4403 13.2787 14.4418C13.2787 14.4433 13.2787 14.4448 13.2787 14.4464C13.2787 14.4479 13.2787 14.4495 13.2787 14.451C13.2787 14.4526 13.2787 14.4542 13.2787 14.4557C13.2787 14.4574 13.2787 14.4589 13.2787 14.4605C13.2787 14.462 13.2787 14.4637 13.2787 14.4653C13.2787 14.4668 13.2787 14.4685 13.2787 14.4701C13.2787 14.4718 13.2787 14.4734 13.2787 14.475C13.2787 14.4767 13.2787 14.4783 13.2787 14.48C13.2787 14.4816 13.2787 14.4833 13.2787 14.485C13.2787 14.4866 13.2787 14.4884 13.2787 14.49C13.2787 14.4918 13.2787 14.4934 13.2787 14.4952C13.2787 14.4968 13.2787 14.4986 13.2787 14.5003C13.2787 14.5021 13.2787 14.5037 13.2787 14.5055C13.2787 14.5072 13.2787 14.509 13.2787 14.5107C13.2787 14.5125 13.2787 14.5143 13.2787 14.5161C13.2787 14.5179 13.2787 14.5196 13.2787 14.5214C13.2787 14.5233 13.2787 14.525 13.2787 14.5269C13.2787 14.5287 13.2787 14.5305 13.2787 14.5323C13.2787 14.5342 13.2787 14.536 13.2787 14.5379C13.2787 14.5397 13.2787 14.5415 13.2787 14.5434C13.2787 14.5453 13.2787 14.5472 13.2787 14.549C13.2787 14.5509 13.2787 14.5529 13.2787 14.5548C13.2787 14.5566 13.2787 14.5586 13.2787 14.5605C13.2787 14.5624 13.2787 14.5644 13.2787 14.5664C13.2787 14.5682 13.2787 14.5702 13.2787 14.5722C13.2787 14.5741 13.2787 14.5761 13.2787 14.5781C13.2787 14.5801 13.2787 14.582 13.2787 14.584C13.2787 14.586 13.2787 14.588 13.2787 14.59C13.2787 14.5921 13.2787 14.5941 13.2787 14.5961C13.2787 14.5982 13.2787 14.6002 13.2787 14.6023C13.2787 14.6043 13.2787 14.6064 13.2787 14.6084C13.2787 14.6105 13.2787 14.6126 13.2787 14.6147C13.2787 14.6168 13.2787 14.6189 13.2787 14.621C13.2787 14.6231 13.2787 14.6252 13.2787 14.6274C13.2787 14.6295 13.2787 14.6316 13.2787 14.6338C13.2787 14.6359 13.2787 14.6381 13.2787 14.6402C13.2787 14.6425 13.2787 14.6446 13.2787 14.6468C13.2787 14.649 13.2787 14.6511 13.2787 14.6533C13.2787 14.6556 13.2787 14.6578 13.2787 14.66C13.2787 14.6622 13.2787 14.6645 13.2787 14.6668C13.2787 14.669 13.2787 14.6713 13.2787 14.6735C13.2787 14.6758 13.2787 14.678 13.2787 14.6804C13.2787 14.6826 13.2787 14.685 13.2787 14.6873C13.2787 14.6895 13.2787 14.6919 13.2787 14.6942C13.2787 14.6965 13.2787 14.6989 13.2787 14.7012C13.2787 14.7036 13.2787 14.7059 13.2787 14.7083C13.2787 14.7106 13.2787 14.7131 13.2787 14.7154C13.2787 14.7179 13.2787 14.7202 13.2787 14.7227C13.2787 14.725 13.2787 14.7275 13.2787 14.7299C13.2787 14.7323 13.2787 14.7347 13.2787 14.7372C13.2787 14.7396 13.2787 14.7421 13.2787 14.7445C13.2787 14.747 13.2787 14.7495 13.2787 14.752C13.2787 14.7545 13.2787 14.757 13.2787 14.7595C13.2787 14.762 13.2787 14.7646 13.2787 14.767C13.2787 14.7696 13.2787 14.7722 13.2787 14.7748C13.2787 14.7772 13.2787 14.7798 13.2787 14.7824C13.2787 14.7849 13.2787 14.7875 13.2787 14.7902C13.2787 14.7928 13.2787 14.7954 13.2787 14.7979C13.2787 14.8006 13.2787 14.8032 13.2787 14.8059C13.2787 14.8085 13.2787 14.8112 13.2787 14.8139C13.2787 14.8164 13.2787 14.8191 13.2787 14.8218C13.2787 14.8245 13.2787 14.8272 13.2787 14.8299C13.2787 14.8326 13.2787 14.8353 13.2787 14.8381C13.2787 14.8408 13.2787 14.8435 13.2787 14.8463C13.2787 14.849 13.2787 14.8518 13.2787 14.8546C13.2787 14.8573 13.2787 14.8601 13.2787 14.8629C13.2787 14.8657 13.2787 14.8685 13.2787 14.8713C13.2787 14.8742 13.2787 14.877 13.2787 14.8798C13.2787 14.8826 13.2787 14.8855 13.2787 14.8883C13.2787 14.8911 13.2787 14.8941 13.2787 14.897C13.2787 14.8998 13.2787 14.9027 13.2787 14.9056C13.2787 14.9085 13.2787 14.9114 13.2787 14.9143C13.2787 14.9172 13.2787 14.9202 13.2787 14.9232C13.2787 14.9261 13.2787 14.9291 13.2787 14.932C13.2787 14.935 13.2787 14.938 13.2787 14.941C13.2787 14.9439 13.2787 14.947 13.2787 14.95C13.2787 14.9531 13.2787 14.956 13.2787 14.959C13.2787 14.9621 13.2787 14.9651 13.2787 14.9683C13.2787 14.9713 13.2787 14.9744 13.2787 14.9774C13.2787 14.9806 13.2787 14.9836 13.2787 14.9868C13.2787 14.9898 13.2787 14.993 13.2787 14.9961C13.2787 14.9993 13.2787 15.0024 13.2787 15.0055C13.2787 15.0087 13.2787 15.0118 13.2787 15.015C13.2787 15.0183 13.2787 15.0214 13.2787 15.0246C13.2787 15.0279 13.2787 15.031 13.2787 15.0343C13.2787 15.0375 13.2787 15.0408 13.2787 15.044C13.2787 15.0472 13.2787 15.0505 13.2787 15.0537C13.2787 15.057 13.2787 15.0603 13.2787 15.0636C13.2787 15.067 13.2787 15.0703 13.2787 15.0735C13.2787 15.0769 13.2787 15.0802 13.2787 15.0836C13.2787 15.0869 13.2787 15.0903 13.2787 15.0937C13.2787 15.0971 13.2787 15.1003 13.2787 15.1037C13.2787 15.1071 13.2787 15.1106 13.2787 15.114C13.2787 15.1174 13.2787 15.1208 13.2787 15.1243C13.2787 15.1277 13.2787 15.1313 13.2787 15.1346C13.2787 15.1382 13.2787 15.1417 13.2787 15.1451C13.2787 15.1486 13.2787 15.1521 13.2787 15.1556C13.2787 15.1591 13.2787 15.1626 13.2787 15.1663C13.2787 15.1698 13.2787 15.1733 13.2787 15.1769C13.2787 15.1804 13.2787 15.1841 13.2787 15.1877C13.2787 15.1912 13.2787 15.1948 13.2787 15.1985C13.2787 15.2021 13.2787 15.2057 13.2787 15.2093C13.2787 15.213 13.2787 15.2166 13.2787 15.2203C13.2787 15.224 13.2787 15.2276 13.2787 15.2314C13.2787 15.235 13.2787 15.2387 13.2787 15.2425C13.2787 15.2462 13.2787 15.25 13.2787 15.2537C13.2787 15.2573 13.2787 15.2612 13.2787 15.265C13.2787 15.2687 13.2787 15.2724 13.2787 15.2763C13.2787 15.2801 13.2787 15.2839 13.2787 15.2877C13.2787 15.2915 13.2787 15.2954 13.2787 15.2993C13.2787 15.303 13.2787 15.3069 13.2787 15.3107C13.2787 15.3147 13.2787 15.3186 13.2787 15.3224C13.2787 15.3263 13.2787 15.3303 13.2787 15.3341C13.2787 15.3381 13.2787 15.342 13.2787 15.346C13.2787 15.35 13.2787 15.3539 13.2787 15.3579C13.2787 15.3619 13.2787 15.3659 13.2787 15.3699C13.2787 15.3738 13.2787 15.3779 13.2787 15.3819C13.2787 15.3859 13.2787 15.39 13.2787 15.3941C13.2787 15.3981 13.2787 15.4022 13.2787 15.4063C13.2787 15.4104 13.2787 15.4145 13.2787 15.4186C13.2787 15.4227 13.2787 15.4268 13.2787 15.431C13.2787 15.4351 13.2787 15.4392 13.2787 15.4434C13.2787 15.4476 13.2787 15.4517 13.2787 15.4559C13.2787 15.4601 13.2787 15.4643 13.2787 15.4686C13.2787 15.4728 13.2787 15.477 13.2787 15.4812C13.2787 15.4854 13.2787 15.4897 13.2787 15.494C13.2787 15.4983 13.2787 15.5025 13.2787 15.5068C13.2787 15.5112 13.2787 15.5155 13.2787 15.5198C13.2787 15.5242 13.2787 15.5285 13.2787 15.5328C13.2787 15.5372 13.2787 15.5415 13.2787 15.5459C13.2787 15.5503 13.2787 15.5547 13.2787 15.5592C13.2787 15.5635 13.2787 15.568 13.2787 15.5724C13.2787 15.5768 13.2787 15.5813 13.2787 15.5857C13.2787 15.5902 13.2787 15.5946 13.2787 15.5992C13.2787 15.6037 13.2787 15.6082 13.2787 15.6127C13.2787 15.6172 13.2787 15.6218 13.2787 15.6264C13.2787 15.6308 13.2787 15.6354 13.2787 15.6401C13.2787 15.6446 13.2787 15.6492 13.2787 15.6538C13.2787 15.6585 13.2787 15.663 13.2787 15.6677C13.2787 15.6723 13.2787 15.6769 13.2787 15.6816C13.2787 15.6863 13.2787 15.691 13.2787 15.6957C13.2787 15.7004 13.2787 15.705 13.2787 15.7097C13.2787 15.7145 13.2787 15.7192 13.2787 15.724C13.2787 15.7287 13.2787 15.7335 13.2787 15.7383C13.2787 15.743 13.2787 15.7478 13.2787 15.7526C13.2787 15.7575 13.2787 15.7623 13.2787 15.7671C13.2787 15.7719 13.2787 15.7768 13.2787 15.7816C13.2787 15.7865 13.2787 15.7915 13.2787 15.7963C13.2787 15.8012 13.2787 15.8061 13.2787 15.811C13.2787 15.8159 13.2787 15.8208 13.2787 15.8259C13.2787 15.8308 13.2787 15.8357 13.2787 15.8407C13.2787 15.8458 13.2787 15.8507 13.2787 15.8557C13.2787 15.8608 13.2787 15.8658 13.2787 15.8708C13.2787 15.8759 13.2787 15.8809 13.2787 15.8859C13.2787 15.8911 13.2787 15.8961 13.2787 15.9013C13.2787 15.9063 13.2787 15.9115 13.2787 15.9166C13.2787 15.9218 13.2787 15.9269 13.2787 15.9321C13.2787 15.9372 13.2787 15.9424 13.2787 15.9475C13.2787 15.9528 13.2787 15.9579 13.2787 15.9632C13.2787 15.9684 13.2787 15.9736 13.2787 15.9789C13.2787 15.9842 13.2787 15.9894 13.2787 15.9947C13.2787 16 13.2787 16.0052 13.2787 16.0106C13.2787 16.0159 13.2787 16.0213 13.2787 16.0265C13.2787 16.0319 13.2787 16.0373 13.2787 16.0426C13.2787 16.048 13.2787 16.0534 13.2787 16.0589C13.2787 16.0642 13.2787 16.0696 13.2787 16.075C13.2787 16.0805 13.2787 16.0859 13.2787 16.0914C13.2787 16.0969 13.2787 16.1024 13.2787 16.1079C13.2787 16.1133 13.2787 16.1189 13.2787 16.1244C13.2787 16.1299 13.2787 16.1354 13.2787 16.141C13.2787 16.1465 13.2787 16.1522 13.2787 16.1578C13.2787 16.1633 13.2787 16.1689 13.2787 16.1745C13.2787 16.1801 13.2787 16.1858 13.2787 16.1915C13.2787 16.1971 13.2787 16.2027 13.2787 16.2085C13.2787 16.2142 13.2787 16.2198 13.2787 16.2256C13.2787 16.2313 13.2787 16.237 13.2787 16.2428C13.2787 16.2485 13.2787 16.2543 13.2787 16.2601C13.2787 16.2658 13.2787 16.2716 13.2787 16.2774C13.2787 16.2833 13.2787 16.289 13.2787 16.2949C13.2787 16.3007 13.2787 16.3066 13.2787 16.3124C13.2787 16.3184 13.2787 16.3243 13.2787 16.3301C13.2787 16.3361 13.2787 16.3419 13.2787 16.3479C13.2787 16.3539 13.2787 16.3599 13.2787 16.3658C13.2787 16.3718 13.2787 16.3778 13.2787 16.3837C13.2787 16.3897 13.2787 16.3958 13.2787 16.4018C13.2787 16.4079 13.2787 16.4139 13.2787 16.4199C13.2787 16.426 13.2787 16.4321 13.2787 16.4382C13.2787 16.4443 13.2787 16.4505 13.2787 16.4566C13.2787 16.4627 13.2787 16.4689 13.2787 16.4751C13.2787 16.4812 13.2787 16.4874 13.2787 16.4936C13.2787 16.4998 13.2787 16.506 13.2787 16.5122C13.2787 16.5185 13.2787 16.5247 13.2787 16.5309C13.2787 16.5372 13.2787 16.5436 13.2787 16.5498C13.2787 16.5561 13.2787 16.5624 13.2787 16.5687C13.2787 16.575 13.2787 16.5815 13.2787 16.5878C13.2787 16.5941 13.2787 16.6006 13.2787 16.6069C13.2787 16.6133 13.2787 16.6198 13.2787 16.6262C13.2787 16.6326 13.2787 16.6391 13.2787 16.6455C13.2787 16.652 13.2787 16.6585 13.2787 16.665C13.2787 16.6715 13.2787 16.678 13.2787 16.6845C13.2787 16.6911 13.2787 16.6976 13.2787 16.7042C13.2787 16.7107 13.2787 16.7173 13.2787 16.724C13.2787 16.7305 13.2787 16.7371 13.2787 16.7438C13.2787 16.7504 13.2787 16.7571 13.2787 16.7637C13.2787 16.7703 13.2787 16.7771 13.2787 16.7838C13.2787 16.7905 13.2787 16.7971 13.2787 16.8039C13.2787 16.8106 13.2787 16.8174 13.2787 16.8242C13.2787 16.831 13.2787 16.8378 13.2787 16.8446C13.2787 16.8513 13.2787 16.8581 13.2787 16.865C13.2787 16.8718 13.2787 16.8787 13.2787 16.8855C13.2787 16.8924 13.2787 16.8994 13.2787 16.9063C13.2787 16.9132 13.2787 16.9201 13.2787 16.927C13.2787 16.934 13.2787 16.9409 13.2787 16.9479C13.2787 16.9548 13.2787 16.9619 13.2787 16.9689C13.2787 16.9759 13.2787 16.9829 13.2787 16.99C13.2787 16.997 13.2787 17.0041 13.2787 17.0112C13.2787 17.0183 13.2787 17.0253 13.2787 17.0325C13.2787 17.0396 13.2787 17.0467 13.2787 17.0539C13.2787 17.061 13.2787 17.0683 13.2787 17.0754C13.2787 17.0826 13.2787 17.0898 13.2787 17.0971C13.2787 17.1042 13.2787 17.1115 13.2787 17.1188C13.2787 17.126 13.2787 17.1333 13.2787 17.1406C13.2787 17.1479 13.2787 17.1552 13.2787 17.1625C13.2787 17.1699 13.2787 17.1772 13.2787 17.1845C13.2787 17.1919 13.2787 17.1993 13.2787 17.2068C13.2787 17.2142 13.2787 17.2215 13.2787 17.229C13.2787 17.2364 13.2787 17.2439 13.2787 17.2514C13.2787 17.2589 13.2787 17.2664 13.2787 17.2739C13.2787 17.2814 13.2787 17.2889 13.2787 17.2965C13.2787 17.304 13.2787 17.3116 13.2787 17.3192C13.2787 17.3267 13.2787 17.3343 13.2787 17.342C13.2787 17.3496 13.2787 17.3572 13.2787 17.3648C13.2787 17.3726 13.2787 17.3802 13.2787 17.3879C13.2787 17.3956 13.2787 17.4034 13.2787 17.4111C13.2787 17.4188 13.2787 17.4265 13.2787 17.4343C13.2787 17.442 13.2787 17.4498 13.2787 17.4577C13.2787 17.4654 13.2787 17.4733 13.2787 17.4811C13.2787 17.4889 13.2787 17.4968 13.2787 17.5046C13.2787 17.5126 13.2787 17.5204 13.2787 17.5284C13.2787 17.5362 13.2787 17.5442 13.2787 17.5522C13.2787 17.5601 13.2787 17.5681 13.2787 17.5761C13.2787 17.5841 13.2787 17.5921 13.2787 17.6002C13.2787 17.6081 13.2787 17.6162 13.2787 17.6243C13.2787 17.6324 13.2787 17.6404 13.2787 17.6485C13.2787 17.6566 13.2787 17.6647 13.2787 17.6729C13.2787 17.681 13.2787 17.6892 13.2787 17.6973C13.2787 17.7055 13.2787 17.7137 13.2787 17.7219C13.2787 17.7301 13.2787 17.7383 13.2787 17.7466C13.2787 17.7548 13.2787 17.7631 13.2787 17.7715C13.2787 17.7798 13.2787 17.7881 13.2787 17.7964C13.2787 17.8047 13.2787 17.813 13.2787 17.8214C13.2787 17.8298 13.2787 17.8382 13.2787 17.8466C13.2787 17.8549 13.2787 17.8634 13.2787 17.8719C13.2787 17.8803 13.2787 17.8888 13.2787 17.8972C13.2787 17.9057 13.2787 17.9142 13.2787 17.9227C13.2787 17.9313 13.2787 17.9398 13.2787 17.9484C13.2787 17.9569 13.2787 17.9655 13.2787 17.9741C13.2787 17.9827 13.2787 17.9913 13.2787 18C13.2787 18.0085 13.2787 18.0172 13.2787 18.0259C13.2787 18.0346 13.2787 18.0433 13.2787 18.052C13.2787 18.0608 13.2787 18.0694 13.2787 18.0782C13.2787 18.087 13.2787 18.0958 13.2787 18.1045C13.2787 18.1133 13.2787 18.1221 13.2787 18.131C13.2787 18.1398 13.2787 18.1487 13.2787 18.1576C13.2787 18.1664 13.2787 18.1753 13.2787 18.1842C13.2787 18.1931 13.2787 18.2021 13.2787 18.211C13.2787 18.22 13.2787 18.2289 13.2787 18.2379C13.2787 18.2469 13.2787 18.2559 13.2787 18.2649C13.2787 18.274 13.2787 18.283 13.2787 18.2921C13.2787 18.3011 13.2787 18.3102 13.2787 18.3194C13.2787 18.3284 13.2787 18.3375 13.2787 18.3468C13.2787 18.3559 13.2787 18.365 13.2787 18.3743C13.2787 18.3834 13.2787 18.3927 13.2787 18.4018C13.2787 18.411 13.2787 18.4203 13.2787 18.4295C13.2787 18.4389 13.2787 18.4482 13.2787 18.4575C13.2787 18.4668 13.2787 18.4761 13.2787 18.4855C13.2787 18.4948 13.2787 18.5041 13.2787 18.5136C13.2787 18.523 13.2787 18.5323 13.2787 18.5418C13.2787 18.5512 13.2787 18.5607 13.2787 18.5702C13.2787 18.5796 13.2787 18.5891 13.2787 18.5986C13.2787 18.6081 13.2787 18.6177 13.2787 18.6272C13.2787 18.6368 13.2787 18.6464 13.2787 18.656C13.2787 18.6656 13.2787 18.6752 13.2787 18.6848C13.2787 18.6944 13.2787 18.7041 13.2787 18.7137C13.2787 18.7234 13.2787 18.7331 13.2787 18.7428C13.2787 18.7526 13.2787 18.7623 13.2787 18.772C13.2787 18.7818 13.2787 18.7915 13.2787 18.8014C13.2787 18.8112 13.2787 18.8211 13.2787 18.8309C13.2787 18.8407 13.2787 18.8506 13.2787 18.8604C13.2787 18.8703 13.2787 18.8802 13.2787 18.8901C13.2787 18.9001 13.2787 18.91 13.2787 18.92C13.2787 18.9299 13.2787 18.9399 13.2787 18.95C13.2787 18.9599 13.2787 18.97 13.2787 18.98C13.2787 18.9901 13.2787 19.0002 13.2787 19.0102C13.2787 19.0203 13.2787 19.0304 13.2787 19.0406C13.2787 19.0506 13.2787 19.0608 13.2787 19.071C13.2787 19.0812 13.2787 19.0914 13.2787 19.1016C13.2787 19.1119 13.2787 19.1221 13.2787 19.1324C13.2787 19.1425 13.2787 19.1528 13.2787 19.1632C13.2787 19.1735 13.2787 19.1838 13.2787 19.1942C13.2787 19.2045 13.2787 19.2148 13.2787 19.2252C13.2787 19.2356 13.2787 19.246 13.2787 19.2565C13.2787 19.2669 13.2787 19.2773 13.2787 19.2878C13.2787 19.2983 13.2787 19.3088 13.2787 19.3193C13.2787 19.3298 13.2787 19.3403 13.2787 19.3509C13.2787 19.3615 13.2787 19.372 13.2787 19.3827C13.2787 19.3932 13.2787 19.4039 13.2787 19.4145C13.2787 19.4252 13.2787 19.4358 13.2787 19.4465C13.2787 19.4571 13.2787 19.4679 13.2787 19.4786C13.2787 19.4893 13.2787 19.5001 13.2787 19.5109C13.2787 19.5216 13.2787 19.5324 13.2787 19.5433C13.2787 19.5541 13.2787 19.565 13.2787 19.5757C13.2787 19.5866 13.2787 19.5975 13.2787 19.6084C13.2787 19.6193 13.2787 19.6303 13.2787 19.6412C13.2787 19.6522 13.2787 19.6631 13.2787 19.6741C13.2787 19.6851 13.2787 19.6961 13.2787 19.7071C13.2787 19.7182 13.2787 19.7292 13.2787 19.7403C13.2787 19.7513 13.2787 19.7625 13.2787 19.7736C13.2787 19.7847 13.2787 19.7958 13.2787 19.8071C13.2787 19.8182 13.2787 19.8294 13.2787 19.8406C13.2787 19.8518 13.2787 19.863 13.2787 19.8743C13.2787 19.8855 13.2787 19.8969 13.2787 19.9081C13.2787 19.9195 13.2787 19.9307 13.2787 19.9421C13.2787 19.9534 13.2787 19.9648 13.2787 19.9763C13.2787 19.9876 13.2787 19.999 13.2787 20.0104H15.0348C15.0348 19.999 15.0348 19.9876 15.0348 19.9763C15.0348 19.9648 15.0348 19.9534 15.0348 19.9421C15.0348 19.9307 15.0348 19.9195 15.0348 19.9081C15.0348 19.8969 15.0348 19.8855 15.0348 19.8743C15.0348 19.863 15.0348 19.8518 15.0348 19.8406C15.0348 19.8294 15.0348 19.8182 15.0348 19.8071C15.0348 19.7958 15.0348 19.7847 15.0348 19.7736C15.0348 19.7625 15.0348 19.7513 15.0348 19.7403C15.0348 19.7292 15.0348 19.7182 15.0348 19.7071C15.0348 19.6961 15.0348 19.6851 15.0348 19.6741C15.0348 19.6631 15.0348 19.6522 15.0348 19.6412C15.0348 19.6303 15.0348 19.6193 15.0348 19.6084C15.0348 19.5975 15.0348 19.5866 15.0348 19.5757C15.0348 19.565 15.0348 19.5541 15.0348 19.5433C15.0348 19.5324 15.0348 19.5216 15.0348 19.5109C15.0348 19.5001 15.0348 19.4893 15.0348 19.4786C15.0348 19.4679 15.0348 19.4571 15.0348 19.4465C15.0348 19.4358 15.0348 19.4252 15.0348 19.4145C15.0348 19.4039 15.0348 19.3932 15.0348 19.3827C15.0348 19.372 15.0348 19.3615 15.0348 19.3509C15.0348 19.3403 15.0348 19.3298 15.0348 19.3193C15.0348 19.3088 15.0348 19.2983 15.0348 19.2878C15.0348 19.2773 15.0348 19.2669 15.0348 19.2565C15.0348 19.246 15.0348 19.2356 15.0348 19.2252C15.0348 19.2148 15.0348 19.2045 15.0348 19.1942C15.0348 19.1838 15.0348 19.1735 15.0348 19.1632C15.0348 19.1528 15.0348 19.1425 15.0348 19.1324C15.0348 19.1221 15.0348 19.1119 15.0348 19.1016C15.0348 19.0914 15.0348 19.0812 15.0348 19.071C15.0348 19.0608 15.0348 19.0506 15.0348 19.0406C15.0348 19.0304 15.0348 19.0203 15.0348 19.0102C15.0348 19.0002 15.0348 18.9901 15.0348 18.98C15.0348 18.97 15.0348 18.9599 15.0348 18.95C15.0348 18.9399 15.0348 18.9299 15.0348 18.92C15.0348 18.91 15.0348 18.9001 15.0348 18.8901C15.0348 18.8802 15.0348 18.8703 15.0348 18.8604C15.0348 18.8506 15.0348 18.8407 15.0348 18.8309C15.0348 18.8211 15.0348 18.8112 15.0348 18.8014C15.0348 18.7915 15.0348 18.7818 15.0348 18.772C15.0348 18.7623 15.0348 18.7526 15.0348 18.7428C15.0348 18.7331 15.0348 18.7234 15.0348 18.7137C15.0348 18.7041 15.0348 18.6944 15.0348 18.6848C15.0348 18.6752 15.0348 18.6656 15.0348 18.656C15.0348 18.6464 15.0348 18.6368 15.0348 18.6272C15.0348 18.6177 15.0348 18.6081 15.0348 18.5986C15.0348 18.5891 15.0348 18.5796 15.0348 18.5702C15.0348 18.5607 15.0348 18.5512 15.0348 18.5418C15.0348 18.5323 15.0348 18.523 15.0348 18.5136C15.0348 18.5041 15.0348 18.4948 15.0348 18.4855C15.0348 18.4761 15.0348 18.4668 15.0348 18.4575C15.0348 18.4482 15.0348 18.4389 15.0348 18.4295C15.0348 18.4203 15.0348 18.411 15.0348 18.4018C15.0348 18.3927 15.0348 18.3834 15.0348 18.3743C15.0348 18.365 15.0348 18.3559 15.0348 18.3468C15.0348 18.3375 15.0348 18.3284 15.0348 18.3194C15.0348 18.3102 15.0348 18.3011 15.0348 18.2921C15.0348 18.283 15.0348 18.274 15.0348 18.2649C15.0348 18.2559 15.0348 18.2469 15.0348 18.2379C15.0348 18.2289 15.0348 18.22 15.0348 18.211C15.0348 18.2021 15.0348 18.1931 15.0348 18.1842C15.0348 18.1753 15.0348 18.1664 15.0348 18.1576C15.0348 18.1487 15.0348 18.1398 15.0348 18.131C15.0348 18.1221 15.0348 18.1133 15.0348 18.1045C15.0348 18.0958 15.0348 18.087 15.0348 18.0782C15.0348 18.0694 15.0348 18.0608 15.0348 18.052C15.0348 18.0433 15.0348 18.0346 15.0348 18.0259C15.0348 18.0172 15.0348 18.0085 15.0348 18C15.0348 17.9913 15.0348 17.9827 15.0348 17.9741C15.0348 17.9655 15.0348 17.9569 15.0348 17.9484C15.0348 17.9398 15.0348 17.9313 15.0348 17.9227C15.0348 17.9142 15.0348 17.9057 15.0348 17.8972C15.0348 17.8888 15.0348 17.8803 15.0348 17.8719C15.0348 17.8634 15.0348 17.8549 15.0348 17.8466C15.0348 17.8382 15.0348 17.8298 15.0348 17.8214C15.0348 17.813 15.0348 17.8047 15.0348 17.7964C15.0348 17.7881 15.0348 17.7798 15.0348 17.7715C15.0348 17.7631 15.0348 17.7548 15.0348 17.7466C15.0348 17.7383 15.0348 17.7301 15.0348 17.7219C15.0348 17.7137 15.0348 17.7055 15.0348 17.6973C15.0348 17.6892 15.0348 17.681 15.0348 17.6729C15.0348 17.6647 15.0348 17.6566 15.0348 17.6485C15.0348 17.6404 15.0348 17.6324 15.0348 17.6243C15.0348 17.6162 15.0348 17.6081 15.0348 17.6002C15.0348 17.5921 15.0348 17.5841 15.0348 17.5761C15.0348 17.5681 15.0348 17.5601 15.0348 17.5522C15.0348 17.5442 15.0348 17.5362 15.0348 17.5284C15.0348 17.5204 15.0348 17.5126 15.0348 17.5046C15.0348 17.4968 15.0348 17.4889 15.0348 17.4811C15.0348 17.4733 15.0348 17.4654 15.0348 17.4577C15.0348 17.4498 15.0348 17.442 15.0348 17.4343C15.0348 17.4265 15.0348 17.4188 15.0348 17.4111C15.0348 17.4034 15.0348 17.3956 15.0348 17.3879C15.0348 17.3802 15.0348 17.3726 15.0348 17.3648C15.0348 17.3572 15.0348 17.3496 15.0348 17.342C15.0348 17.3343 15.0348 17.3267 15.0348 17.3192C15.0348 17.3116 15.0348 17.304 15.0348 17.2965C15.0348 17.2889 15.0348 17.2814 15.0348 17.2739C15.0348 17.2664 15.0348 17.2589 15.0348 17.2514C15.0348 17.2439 15.0348 17.2364 15.0348 17.229C15.0348 17.2215 15.0348 17.2142 15.0348 17.2068C15.0348 17.1993 15.0348 17.1919 15.0348 17.1845C15.0348 17.1772 15.0348 17.1699 15.0348 17.1625C15.0348 17.1552 15.0348 17.1479 15.0348 17.1406C15.0348 17.1333 15.0348 17.126 15.0348 17.1188C15.0348 17.1115 15.0348 17.1042 15.0348 17.0971C15.0348 17.0898 15.0348 17.0826 15.0348 17.0754C15.0348 17.0683 15.0348 17.061 15.0348 17.0539C15.0348 17.0467 15.0348 17.0396 15.0348 17.0325C15.0348 17.0253 15.0348 17.0183 15.0348 17.0112C15.0348 17.0041 15.0348 16.997 15.0348 16.99C15.0348 16.9829 15.0348 16.9759 15.0348 16.9689C15.0348 16.9619 15.0348 16.9548 15.0348 16.9479C15.0348 16.9409 15.0348 16.934 15.0348 16.927C15.0348 16.9201 15.0348 16.9132 15.0348 16.9063C15.0348 16.8994 15.0348 16.8924 15.0348 16.8855C15.0348 16.8787 15.0348 16.8718 15.0348 16.865C15.0348 16.8581 15.0348 16.8513 15.0348 16.8446C15.0348 16.8378 15.0348 16.831 15.0348 16.8242C15.0348 16.8174 15.0348 16.8106 15.0348 16.8039C15.0348 16.7971 15.0348 16.7905 15.0348 16.7838C15.0348 16.7771 15.0348 16.7703 15.0348 16.7637C15.0348 16.7571 15.0348 16.7504 15.0348 16.7438C15.0348 16.7371 15.0348 16.7305 15.0348 16.724C15.0348 16.7173 15.0348 16.7107 15.0348 16.7042C15.0348 16.6976 15.0348 16.6911 15.0348 16.6845C15.0348 16.678 15.0348 16.6715 15.0348 16.665C15.0348 16.6585 15.0348 16.652 15.0348 16.6455C15.0348 16.6391 15.0348 16.6326 15.0348 16.6262C15.0348 16.6198 15.0348 16.6133 15.0348 16.6069C15.0348 16.6006 15.0348 16.5941 15.0348 16.5878C15.0348 16.5815 15.0348 16.575 15.0348 16.5687C15.0348 16.5624 15.0348 16.5561 15.0348 16.5498C15.0348 16.5436 15.0348 16.5372 15.0348 16.5309C15.0348 16.5247 15.0348 16.5185 15.0348 16.5122C15.0348 16.506 15.0348 16.4998 15.0348 16.4936C15.0348 16.4874 15.0348 16.4812 15.0348 16.4751C15.0348 16.4689 15.0348 16.4627 15.0348 16.4566C15.0348 16.4505 15.0348 16.4443 15.0348 16.4382C15.0348 16.4321 15.0348 16.426 15.0348 16.4199C15.0348 16.4139 15.0348 16.4079 15.0348 16.4018C15.0348 16.3958 15.0348 16.3897 15.0348 16.3837C15.0348 16.3778 15.0348 16.3718 15.0348 16.3658C15.0348 16.3599 15.0348 16.3539 15.0348 16.3479C15.0348 16.3419 15.0348 16.3361 15.0348 16.3301C15.0348 16.3243 15.0348 16.3184 15.0348 16.3124C15.0348 16.3066 15.0348 16.3007 15.0348 16.2949C15.0348 16.289 15.0348 16.2833 15.0348 16.2774C15.0348 16.2716 15.0348 16.2658 15.0348 16.2601C15.0348 16.2543 15.0348 16.2485 15.0348 16.2428C15.0348 16.237 15.0348 16.2313 15.0348 16.2256C15.0348 16.2198 15.0348 16.2142 15.0348 16.2085C15.0348 16.2027 15.0348 16.1971 15.0348 16.1915C15.0348 16.1858 15.0348 16.1801 15.0348 16.1745C15.0348 16.1689 15.0348 16.1633 15.0348 16.1578C15.0348 16.1522 15.0348 16.1465 15.0348 16.141C15.0348 16.1354 15.0348 16.1299 15.0348 16.1244C15.0348 16.1189 15.0348 16.1133 15.0348 16.1079C15.0348 16.1024 15.0348 16.0969 15.0348 16.0914C15.0348 16.0859 15.0348 16.0805 15.0348 16.075C15.0348 16.0696 15.0348 16.0642 15.0348 16.0589C15.0348 16.0534 15.0348 16.048 15.0348 16.0426C15.0348 16.0373 15.0348 16.0319 15.0348 16.0265C15.0348 16.0213 15.0348 16.0159 15.0348 16.0106C15.0348 16.0052 15.0348 16 15.0348 15.9947C15.0348 15.9894 15.0348 15.9842 15.0348 15.9789C15.0348 15.9736 15.0348 15.9684 15.0348 15.9632C15.0348 15.9579 15.0348 15.9528 15.0348 15.9475C15.0348 15.9424 15.0348 15.9372 15.0348 15.9321C15.0348 15.9269 15.0348 15.9218 15.0348 15.9166C15.0348 15.9115 15.0348 15.9063 15.0348 15.9013C15.0348 15.8961 15.0348 15.8911 15.0348 15.8859C15.0348 15.8809 15.0348 15.8759 15.0348 15.8708C15.0348 15.8658 15.0348 15.8608 15.0348 15.8557C15.0348 15.8507 15.0348 15.8458 15.0348 15.8407C15.0348 15.8357 15.0348 15.8308 15.0348 15.8259C15.0348 15.8208 15.0348 15.8159 15.0348 15.811C15.0348 15.8061 15.0348 15.8012 15.0348 15.7963C15.0348 15.7915 15.0348 15.7865 15.0348 15.7816C15.0348 15.7768 15.0348 15.7719 15.0348 15.7671C15.0348 15.7623 15.0348 15.7575 15.0348 15.7526C15.0348 15.7478 15.0348 15.743 15.0348 15.7383C15.0348 15.7335 15.0348 15.7287 15.0348 15.724C15.0348 15.7192 15.0348 15.7145 15.0348 15.7097C15.0348 15.705 15.0348 15.7004 15.0348 15.6957C15.0348 15.691 15.0348 15.6863 15.0348 15.6816C15.0348 15.6769 15.0348 15.6723 15.0348 15.6677C15.0348 15.663 15.0348 15.6585 15.0348 15.6538C15.0348 15.6492 15.0348 15.6446 15.0348 15.6401C15.0348 15.6354 15.0348 15.6308 15.0348 15.6264C15.0348 15.6218 15.0348 15.6172 15.0348 15.6127C15.0348 15.6082 15.0348 15.6037 15.0348 15.5992C15.0348 15.5946 15.0348 15.5902 15.0348 15.5857C15.0348 15.5813 15.0348 15.5768 15.0348 15.5724C15.0348 15.568 15.0348 15.5635 15.0348 15.5592C15.0348 15.5547 15.0348 15.5503 15.0348 15.5459C15.0348 15.5415 15.0348 15.5372 15.0348 15.5328C15.0348 15.5285 15.0348 15.5242 15.0348 15.5198C15.0348 15.5155 15.0348 15.5112 15.0348 15.5068C15.0348 15.5025 15.0348 15.4983 15.0348 15.494C15.0348 15.4897 15.0348 15.4854 15.0348 15.4812C15.0348 15.477 15.0348 15.4728 15.0348 15.4686C15.0348 15.4643 15.0348 15.4601 15.0348 15.4559C15.0348 15.4517 15.0348 15.4476 15.0348 15.4434C15.0348 15.4392 15.0348 15.4351 15.0348 15.431C15.0348 15.4268 15.0348 15.4227 15.0348 15.4186C15.0348 15.4145 15.0348 15.4104 15.0348 15.4063C15.0348 15.4022 15.0348 15.3981 15.0348 15.3941C15.0348 15.39 15.0348 15.3859 15.0348 15.3819C15.0348 15.3779 15.0348 15.3738 15.0348 15.3699C15.0348 15.3659 15.0348 15.3619 15.0348 15.3579C15.0348 15.3539 15.0348 15.35 15.0348 15.346C15.0348 15.342 15.0348 15.3381 15.0348 15.3341C15.0348 15.3303 15.0348 15.3263 15.0348 15.3224C15.0348 15.3186 15.0348 15.3147 15.0348 15.3107C15.0348 15.3069 15.0348 15.303 15.0348 15.2993C15.0348 15.2954 15.0348 15.2915 15.0348 15.2877C15.0348 15.2839 15.0348 15.2801 15.0348 15.2763C15.0348 15.2724 15.0348 15.2687 15.0348 15.265C15.0348 15.2612 15.0348 15.2573 15.0348 15.2537C15.0348 15.25 15.0348 15.2462 15.0348 15.2425C15.0348 15.2387 15.0348 15.235 15.0348 15.2314C15.0348 15.2276 15.0348 15.224 15.0348 15.2203C15.0348 15.2166 15.0348 15.213 15.0348 15.2093C15.0348 15.2057 15.0348 15.2021 15.0348 15.1985C15.0348 15.1948 15.0348 15.1912 15.0348 15.1877C15.0348 15.1841 15.0348 15.1804 15.0348 15.1769C15.0348 15.1733 15.0348 15.1698 15.0348 15.1663C15.0348 15.1626 15.0348 15.1591 15.0348 15.1556C15.0348 15.1521 15.0348 15.1486 15.0348 15.1451C15.0348 15.1417 15.0348 15.1382 15.0348 15.1346C15.0348 15.1313 15.0348 15.1277 15.0348 15.1243C15.0348 15.1208 15.0348 15.1174 15.0348 15.114C15.0348 15.1106 15.0348 15.1071 15.0348 15.1037C15.0348 15.1003 15.0348 15.0971 15.0348 15.0937C15.0348 15.0903 15.0348 15.0869 15.0348 15.0836C15.0348 15.0802 15.0348 15.0769 15.0348 15.0735C15.0348 15.0703 15.0348 15.067 15.0348 15.0636C15.0348 15.0603 15.0348 15.057 15.0348 15.0537C15.0348 15.0505 15.0348 15.0472 15.0348 15.044C15.0348 15.0408 15.0348 15.0375 15.0348 15.0343C15.0348 15.031 15.0348 15.0279 15.0348 15.0246C15.0348 15.0214 15.0348 15.0183 15.0348 15.015C15.0348 15.0118 15.0348 15.0087 15.0348 15.0055C15.0348 15.0024 15.0348 14.9993 15.0348 14.9961C15.0348 14.993 15.0348 14.9898 15.0348 14.9868C15.0348 14.9836 15.0348 14.9806 15.0348 14.9774C15.0348 14.9744 15.0348 14.9713 15.0348 14.9683C15.0348 14.9651 15.0348 14.9621 15.0348 14.959C15.0348 14.956 15.0348 14.9531 15.0348 14.95C15.0348 14.947 15.0348 14.9439 15.0348 14.941C15.0348 14.938 15.0348 14.935 15.0348 14.932C15.0348 14.9291 15.0348 14.9261 15.0348 14.9232C15.0348 14.9202 15.0348 14.9172 15.0348 14.9143C15.0348 14.9114 15.0348 14.9085 15.0348 14.9056C15.0348 14.9027 15.0348 14.8998 15.0348 14.897C15.0348 14.8941 15.0348 14.8911 15.0348 14.8883C15.0348 14.8855 15.0348 14.8826 15.0348 14.8798C15.0348 14.877 15.0348 14.8742 15.0348 14.8713C15.0348 14.8685 15.0348 14.8657 15.0348 14.8629C15.0348 14.8601 15.0348 14.8573 15.0348 14.8546C15.0348 14.8518 15.0348 14.849 15.0348 14.8463C15.0348 14.8435 15.0348 14.8408 15.0348 14.8381C15.0348 14.8353 15.0348 14.8326 15.0348 14.8299C15.0348 14.8272 15.0348 14.8245 15.0348 14.8218C15.0348 14.8191 15.0348 14.8164 15.0348 14.8139C15.0348 14.8112 15.0348 14.8085 15.0348 14.8059C15.0348 14.8032 15.0348 14.8006 15.0348 14.7979C15.0348 14.7954 15.0348 14.7928 15.0348 14.7902C15.0348 14.7875 15.0348 14.7849 15.0348 14.7824C15.0348 14.7798 15.0348 14.7772 15.0348 14.7748C15.0348 14.7722 15.0348 14.7696 15.0348 14.767C15.0348 14.7646 15.0348 14.762 15.0348 14.7595C15.0348 14.757 15.0348 14.7545 15.0348 14.752C15.0348 14.7495 15.0348 14.747 15.0348 14.7445C15.0348 14.7421 15.0348 14.7396 15.0348 14.7372C15.0348 14.7347 15.0348 14.7323 15.0348 14.7299C15.0348 14.7275 15.0348 14.725 15.0348 14.7227C15.0348 14.7202 15.0348 14.7179 15.0348 14.7154C15.0348 14.7131 15.0348 14.7106 15.0348 14.7083C15.0348 14.7059 15.0348 14.7036 15.0348 14.7012C15.0348 14.6989 15.0348 14.6965 15.0348 14.6942C15.0348 14.6919 15.0348 14.6895 15.0348 14.6873C15.0348 14.685 15.0348 14.6826 15.0348 14.6804C15.0348 14.678 15.0348 14.6758 15.0348 14.6735C15.0348 14.6713 15.0348 14.669 15.0348 14.6668C15.0348 14.6645 15.0348 14.6622 15.0348 14.66C15.0348 14.6578 15.0348 14.6556 15.0348 14.6533C15.0348 14.6511 15.0348 14.649 15.0348 14.6468C15.0348 14.6446 15.0348 14.6425 15.0348 14.6402C15.0348 14.6381 15.0348 14.6359 15.0348 14.6338C15.0348 14.6316 15.0348 14.6295 15.0348 14.6274C15.0348 14.6252 15.0348 14.6231 15.0348 14.621C15.0348 14.6189 15.0348 14.6168 15.0348 14.6147C15.0348 14.6126 15.0348 14.6105 15.0348 14.6084C15.0348 14.6064 15.0348 14.6043 15.0348 14.6023C15.0348 14.6002 15.0348 14.5982 15.0348 14.5961C15.0348 14.5941 15.0348 14.5921 15.0348 14.59C15.0348 14.588 15.0348 14.586 15.0348 14.584C15.0348 14.582 15.0348 14.5801 15.0348 14.5781C15.0348 14.5761 15.0348 14.5741 15.0348 14.5722C15.0348 14.5702 15.0348 14.5682 15.0348 14.5664C15.0348 14.5644 15.0348 14.5624 15.0348 14.5605C15.0348 14.5586 15.0348 14.5566 15.0348 14.5548C15.0348 14.5529 15.0348 14.5509 15.0348 14.549C15.0348 14.5472 15.0348 14.5453 15.0348 14.5434C15.0348 14.5415 15.0348 14.5397 15.0348 14.5379C15.0348 14.536 15.0348 14.5342 15.0348 14.5323C15.0348 14.5305 15.0348 14.5287 15.0348 14.5269C15.0348 14.525 15.0348 14.5233 15.0348 14.5214C15.0348 14.5196 15.0348 14.5179 15.0348 14.5161C15.0348 14.5143 15.0348 14.5125 15.0348 14.5107C15.0348 14.509 15.0348 14.5072 15.0348 14.5055C15.0348 14.5037 15.0348 14.5021 15.0348 14.5003C15.0348 14.4986 15.0348 14.4968 15.0348 14.4952C15.0348 14.4934 15.0348 14.4918 15.0348 14.49C15.0348 14.4884 15.0348 14.4866 15.0348 14.485C15.0348 14.4833 15.0348 14.4816 15.0348 14.48C15.0348 14.4783 15.0348 14.4767 15.0348 14.475C15.0348 14.4734 15.0348 14.4718 15.0348 14.4701C15.0348 14.4685 15.0348 14.4668 15.0348 14.4653C15.0348 14.4637 15.0348 14.462 15.0348 14.4605C15.0348 14.4589 15.0348 14.4574 15.0348 14.4557C15.0348 14.4542 15.0348 14.4526 15.0348 14.451C15.0348 14.4495 15.0348 14.4479 15.0348 14.4464C15.0348 14.4448 15.0348 14.4433 15.0348 14.4418C15.0348 14.4403 15.0348 14.4387 15.0348 14.4372C15.0348 14.4357 15.0348 14.4342 15.0348 14.4328C15.0348 14.4312 15.0348 14.4297 15.0348 14.4283C15.0348 14.4268 15.0348 14.4254 15.0348 14.4239C15.0348 14.4225 15.0348 14.4209 15.0348 14.4195C15.0348 14.418 15.0348 14.4166 15.0348 14.4152C15.0348 14.4138 15.0348 14.4124 15.0348 14.411C15.0348 14.4096 15.0348 14.4082 15.0348 14.4068C15.0348 14.4054 15.0348 14.404 15.0348 14.4026C15.0348 14.4012 15.0348 14.3998 15.0348 14.3985C15.0348 14.3971 15.0348 14.3957 15.0348 14.3944C15.0348 14.393 15.0348 14.3917 15.0348 14.3904C15.0348 14.389 15.0348 14.3877 15.0348 14.3863C15.0348 14.385 15.0348 14.3837 15.0348 14.3824C15.0348 14.3811 15.0348 14.3799 15.0348 14.3786C15.0348 14.3773 15.0348 14.376 15.0348 14.3747C15.0348 14.3734 15.0348 14.3721 15.0348 14.3708C15.0348 14.3695 15.0348 14.3684 15.0348 14.3671C15.0348 14.3658 15.0348 14.3646 15.0348 14.3633C15.0348 14.3622 15.0348 14.3609 15.0348 14.3597C15.0348 14.3585 15.0348 14.3573 15.0348 14.3561C15.0348 14.3549 15.0348 14.3537 15.0348 14.3525C15.0348 14.3513 15.0348 14.3501 15.0348 14.3489C15.0348 14.3478 15.0348 14.3466 15.0348 14.3454C15.0348 14.3443 15.0348 14.3432 15.0348 14.342C15.0348 14.3409 15.0348 14.3397 15.0348 14.3386C15.0348 14.3375 15.0348 14.3363 15.0348 14.3352C15.0348 14.3341 15.0348 14.333 15.0348 14.3319C15.0348 14.3308 15.0348 14.3297 15.0348 14.3286C15.0348 14.3275 15.0348 14.3265 15.0348 14.3254C15.0348 14.3242 15.0348 14.3232 15.0348 14.3221C15.0348 14.3211 15.0348 14.32 15.0348 14.319C15.0348 14.3179 15.0348 14.3169 15.0348 14.3159C15.0348 14.3149 15.0348 14.3138 15.0348 14.3128C15.0348 14.3118 15.0348 14.3108 15.0348 14.3097C15.0348 14.3088 15.0348 14.3077 15.0348 14.3068C15.0348 14.3057 15.0348 14.3048 15.0348 14.3038C15.0348 14.3028 15.0348 14.3019 15.0348 14.3008C15.0348 14.2999 15.0348 14.299 15.0348 14.298C15.0348 14.2971 15.0348 14.296 15.0348 14.2951C15.0348 14.2942 15.0348 14.2932 15.0348 14.2923C15.0348 14.2913 15.0348 14.2905 15.0348 14.2896C15.0348 14.2886 15.0348 14.2877 15.0348 14.2868C15.0348 14.286 15.0348 14.285 15.0348 14.2841C15.0348 14.2833 15.0348 14.2823 15.0348 14.2815C15.0348 14.2806 15.0348 14.2798 15.0348 14.2788C15.0348 14.278 15.0348 14.2772 15.0348 14.2762C15.0348 14.2754 15.0348 14.2746 15.0348 14.2737C15.0348 14.2728 15.0348 14.272 15.0348 14.2712C15.0348 14.2704 15.0348 14.2696 15.0348 14.2687C15.0348 14.2679 15.0348 14.2671 15.0348 14.2663C15.0348 14.2655 15.0348 14.2646 15.0348 14.2639C15.0348 14.2631 15.0348 14.2623 15.0348 14.2615C15.0348 14.2608 15.0348 14.26 15.0348 14.2591C15.0348 14.2584 15.0348 14.2576 15.0348 14.2569C15.0348 14.2561 15.0348 14.2554 15.0348 14.2546C15.0348 14.2539 15.0348 14.2532 15.0348 14.2524C15.0348 14.2517 15.0348 14.251 15.0348 14.2502C15.0348 14.2495 15.0348 14.2487 15.0348 14.248C15.0348 14.2473 15.0348 14.2466 15.0348 14.2459C15.0348 14.2452 15.0348 14.2445 15.0348 14.2438C15.0348 14.2431 15.0348 14.2424 15.0348 14.2418C15.0348 14.2411 15.0348 14.2404 15.0348 14.2397C15.0348 14.2391 15.0348 14.2384 15.0348 14.2377C15.0348 14.2371 15.0348 14.2364 15.0348 14.2357C15.0348 14.2351 15.0348 14.2344 15.0348 14.2339C15.0348 14.2333 15.0348 14.2326 15.0348 14.232C15.0348 14.2313 15.0348 14.2307 15.0348 14.2301C15.0348 14.2294 15.0348 14.2288 15.0348 14.2282C15.0348 14.2277 15.0348 14.2271 15.0348 14.2265C15.0348 14.2259 15.0348 14.2252 15.0348 14.2246C15.0348 14.224 15.0348 14.2234 15.0348 14.223C15.0348 14.2224 15.0348 14.2218 15.0348 14.2212C15.0348 14.2206 15.0348 14.22 15.0348 14.2196C15.0348 14.219 15.0348 14.2184 15.0348 14.2178C15.0348 14.2174 15.0348 14.2168 15.0348 14.2162C15.0348 14.2157 15.0348 14.2151 15.0348 14.2147C15.0348 14.2141 15.0348 14.2136 15.0348 14.213C15.0348 14.2125 15.0348 14.2121 15.0348 14.2115C15.0348 14.211 15.0348 14.2106 15.0348 14.21C15.0348 14.2095 15.0348 14.209 15.0348 14.2086C15.0348 14.2081 15.0348 14.2075 15.0348 14.207C15.0348 14.2066 15.0348 14.2061 15.0348 14.2056C15.0348 14.2052 15.0348 14.2047 15.0348 14.2042C15.0348 14.2038 15.0348 14.2033 15.0348 14.2028C15.0348 14.2024 15.0348 14.202 15.0348 14.2015C15.0348 14.2011 15.0348 14.2006 15.0348 14.2003C15.0348 14.1998 15.0348 14.1993 15.0348 14.1989C15.0348 14.1985 15.0348 14.198 15.0348 14.1977C15.0348 14.1972 15.0348 14.1969 15.0348 14.1964C15.0348 14.1959 15.0348 14.1956 15.0348 14.1952C15.0348 14.1948 15.0348 14.1944 15.0348 14.1939C15.0348 14.1936 15.0348 14.1932 15.0348 14.1928C15.0348 14.1924 15.0348 14.1931 15.0348 14.1928C15.0348 14.1923 15.0348 14.1909 15.0348 14.1905C15.0348 14.1902 15.0348 14.1909 15.0348 14.1905C15.0348 14.1902 15.0348 14.1888 15.0348 14.1884C15.0348 14.1881 15.0348 14.1888 15.0348 14.1884C15.0348 14.1881 15.0348 14.1867 15.0348 14.1863C15.0348 14.186 15.0348 14.1867 15.0348 14.1863C15.0348 14.186 15.0348 14.1847 15.0348 14.1843C15.0348 14.184 15.0348 14.1846 15.0348 14.1843C15.0348 14.184 15.0348 14.1827 15.0348 14.1825C15.0348 14.1821 15.0348 14.1828 15.0348 14.1825C15.0348 14.1821 15.0348 14.1809 15.0348 14.1806C15.0348 14.1804 15.0348 14.1808 15.0348 14.1806C15.0348 14.1804 15.0348 14.1792 15.0348 14.1789C15.0348 14.1786 15.0348 14.1792 15.0348 14.1789C15.0348 14.1786 15.0348 14.1775 15.0348 14.1773C15.0348 14.1771 15.0348 14.1775 15.0348 14.1773C15.0348 14.1771 15.0348 14.176 15.0348 14.1758C15.0348 14.1754 15.0348 14.176 15.0348 14.1758C15.0348 14.1756 15.0348 14.1745 15.0348 14.1743C15.0348 14.174 15.0348 14.1745 15.0348 14.1743C15.0348 14.174 15.0348 14.1731 15.0348 14.1729C15.0348 14.1726 15.0348 14.1731 15.0348 14.1729C15.0348 14.1726 15.0348 14.1718 15.0348 14.1716C15.0348 14.1713 15.0348 14.1718 15.0348 14.1716C15.0348 14.1715 15.0348 14.1705 15.0348 14.1703C15.0348 14.1701 15.0348 14.1688 15.0348 14.1685C15.0348 14.1684 15.0348 14.1671 15.0348 14.167C15.0348 14.1669 15.0348 14.1657 15.0348 14.1656C15.0348 14.1655 15.0348 14.1644 15.0348 14.1642C15.0348 14.1641 15.0348 14.1633 15.0348 14.163C15.0348 14.1629 15.0348 14.1619 15.0348 14.1617C15.0348 14.1616 15.0348 14.1619 15.0348 14.1617C15.0348 14.1616 15.0348 14.1607 15.0348 14.1606C15.0348 14.1604 15.0348 14.1593 15.0348 14.1592C15.0348 14.1592 15.0348 14.1581 15.0348 14.158C15.0348 14.1579 15.0348 14.1566 15.0348 14.1566H14.1567ZM15.0348 14.1566V8.30274H13.2787V14.1566H15.0348Z" fill="#2BA84D"/>
</g>
</svg>
