<svg width="42" height="42" viewBox="0 0 42 42" fill="none" xmlns="http://www.w3.org/2000/svg">
<circle cx="21" cy="21" r="19.75" fill="#2BA84D" fill-opacity="0.2" stroke="#202020" stroke-width="1.5"/>
<path d="M23.3636 22.375C20.815 22.375 15.7273 23.6219 15.7273 26.125V28H31V26.125C31 23.6219 25.9123 22.375 23.3636 22.375ZM14.7727 18.625V15.8125H12.8636V18.625H10V20.5H12.8636V23.3125H14.7727V20.5H17.6364V18.625M23.3636 20.5C24.3763 20.5 25.3474 20.1049 26.0635 19.4017C26.7795 18.6984 27.1818 17.7446 27.1818 16.75C27.1818 15.7554 26.7795 14.8016 26.0635 14.0983C25.3474 13.3951 24.3763 13 23.3636 13C22.351 13 21.3798 13.3951 20.6638 14.0983C19.9477 14.8016 19.5455 15.7554 19.5455 16.75C19.5455 17.7446 19.9477 18.6984 20.6638 19.4017C21.3798 20.1049 22.351 20.5 23.3636 20.5Z" fill="#2BA84D"/>
</svg>
