<svg width="19" height="19" viewBox="0 0 19 19" fill="none" xmlns="http://www.w3.org/2000/svg">
<path d="M17.9071 17.8295C17.6456 18.0892 17.2919 18.2349 16.9233 18.2349C16.5548 18.2349 16.2011 18.0892 15.9396 17.8295L11.6768 13.5668C10.2301 14.5254 8.47895 14.9124 6.76307 14.6528C5.04718 14.3932 3.4889 13.5055 2.39056 12.1619C1.29222 10.8183 0.732127 9.1147 0.818954 7.38152C0.905781 5.64834 1.63333 4.00921 2.86046 2.78213C4.08758 1.55505 5.72678 0.827522 7.46002 0.740699C9.19326 0.653875 10.897 1.21395 12.2406 2.31225C13.5842 3.41055 14.4719 4.96877 14.7315 6.6846C14.9911 8.40042 14.6041 10.1515 13.6456 11.5981L17.9071 15.8608C18.1672 16.1224 18.3132 16.4763 18.3132 16.8451C18.3132 17.214 18.1672 17.5679 17.9071 17.8295ZM9.92015 12.929C11.2191 12.404 12.2759 11.414 12.8845 10.1521C13.493 8.89009 13.6096 7.44671 13.2115 6.10345C12.8134 4.7602 11.9292 3.6134 10.7313 2.88676C9.5334 2.16012 8.10779 1.90575 6.73251 2.17327C5.35724 2.44079 4.13094 3.21101 3.29282 4.33369C2.4547 5.45637 2.06486 6.851 2.19936 8.24553C2.33386 9.64006 2.98304 10.9345 4.02027 11.8763C5.05751 12.8181 6.40841 13.3398 7.80946 13.3396C8.53257 13.3407 9.25026 13.2013 9.92015 12.929Z" fill="#61646E"/>
</svg>
