<svg width="170" height="170" viewBox="0 0 170 170" fill="none" xmlns="http://www.w3.org/2000/svg">
<rect x="0.625" y="0.625" width="168.75" height="168.75" rx="84.375" fill="#1C1C1E" stroke="#2BA84D" stroke-width="1.25"/>
<path d="M119.037 56.4624L128.457 47.0428C128.845 46.6551 129.028 46.1065 128.95 45.5634C128.873 45.0203 128.544 44.5446 128.063 44.2802L116.739 38.0621C115.894 37.5987 114.834 37.9074 114.37 38.7517C113.907 39.5967 114.215 40.657 115.06 41.1204L124.346 46.2196L116.262 54.3029L87.1873 38.3374L95.2706 30.2541L103.442 34.7414C104.286 35.2048 105.347 34.8967 105.81 34.0518C106.275 33.2074 105.966 32.1464 105.121 31.6831L95.8021 26.5654C95.122 26.192 94.277 26.3126 93.7292 26.8612L84.3089 36.2814L74.8886 26.8612C74.34 26.3126 73.495 26.1927 72.8156 26.5654L40.5547 44.2802C40.0736 44.5446 39.7445 45.0196 39.6675 45.5634C39.5898 46.1065 39.7724 46.6551 40.1608 47.0428L49.5804 56.4624L40.1608 65.8813C39.7724 66.2698 39.5898 66.8176 39.6675 67.3614C39.7445 67.9045 40.0736 68.3802 40.5547 68.6439L50.3035 73.9973V91.8907C50.3035 92.5278 50.6503 93.1139 51.2084 93.4205L83.4693 111.135C83.731 111.278 84.0199 111.35 84.3089 111.35C84.5978 111.35 84.8867 111.278 85.1484 111.135L117.409 93.4205C117.967 93.1139 118.314 92.5278 118.314 91.8907V73.9973L128.063 68.6446C128.544 68.3802 128.873 67.9045 128.95 67.3614C129.028 66.8183 128.845 66.2698 128.457 65.882L119.037 56.4624ZM84.3089 72.1861L55.6726 56.4617L84.3089 40.7367L112.945 56.4617L84.3089 72.1861ZM73.3479 30.2541L81.4305 38.3374L52.3553 54.3029L44.272 46.2196L73.3479 30.2541ZM52.3566 58.6212L81.4318 74.5868L73.3479 82.6707L44.272 66.7052L52.3566 58.6212ZM114.825 90.859L86.0534 106.658V88.8249C86.0534 87.8613 85.2724 87.0804 84.3089 87.0804C83.3453 87.0804 82.5644 87.8613 82.5644 88.8249V106.658L53.7924 90.859V75.9136L72.8156 86.3594C73.0794 86.5039 73.3683 86.5747 73.6545 86.5747C74.1063 86.5747 74.5533 86.3989 74.8886 86.0637L84.3089 76.6434L93.7292 86.0637C94.0644 86.3996 94.5115 86.5747 94.9633 86.5747C95.2495 86.5747 95.5384 86.5039 95.8021 86.3594L114.825 75.9136V90.859ZM95.2706 82.6707L87.1866 74.5861L116.262 58.6212L124.346 66.7045L95.2706 82.6707Z" fill="white"/>
<path d="M84.3087 81.2888C83.8501 81.2888 83.3997 81.4748 83.0753 81.7998C82.7509 82.1256 82.5642 82.574 82.5642 83.0333C82.5642 83.4932 82.7509 83.9416 83.0753 84.268C83.3997 84.5924 83.8501 84.7778 84.3087 84.7778C84.7673 84.7778 85.2178 84.5924 85.5421 84.268C85.8665 83.9416 86.0532 83.4932 86.0532 83.0333C86.0532 82.574 85.8665 82.1256 85.5421 81.7998C85.2178 81.4748 84.7673 81.2888 84.3087 81.2888Z" fill="white"/>
<path opacity="0.4" d="M56.4266 114.68L58.0594 118.246L59.6922 114.68H61.4485L58.8758 119.653V122.5H57.243V119.653L54.6648 114.68H56.4266ZM61.4646 119.653V119.541C61.4646 119.114 61.5255 118.722 61.6473 118.364C61.769 118.003 61.9463 117.689 62.179 117.424C62.4118 117.159 62.6982 116.953 63.0384 116.807C63.3785 116.656 63.7688 116.581 64.2093 116.581C64.6497 116.581 65.0418 116.656 65.3855 116.807C65.7293 116.953 66.0175 117.159 66.2503 117.424C66.4866 117.689 66.6657 118.003 66.7874 118.364C66.9091 118.722 66.97 119.114 66.97 119.541V119.653C66.97 120.076 66.9091 120.468 66.7874 120.83C66.6657 121.188 66.4866 121.501 66.2503 121.77C66.0175 122.035 65.7311 122.24 65.3909 122.387C65.0507 122.534 64.6604 122.607 64.22 122.607C63.7796 122.607 63.3875 122.534 63.0438 122.387C62.7036 122.24 62.4153 122.035 62.179 121.77C61.9463 121.501 61.769 121.188 61.6473 120.83C61.5255 120.468 61.4646 120.076 61.4646 119.653ZM63.0115 119.541V119.653C63.0115 119.897 63.033 120.124 63.076 120.335C63.1189 120.547 63.187 120.733 63.2801 120.894C63.3768 121.052 63.5021 121.175 63.6561 121.265C63.81 121.354 63.998 121.399 64.22 121.399C64.4349 121.399 64.6193 121.354 64.7732 121.265C64.9272 121.175 65.0507 121.052 65.1438 120.894C65.2369 120.733 65.305 120.547 65.3479 120.335C65.3945 120.124 65.4178 119.897 65.4178 119.653V119.541C65.4178 119.304 65.3945 119.082 65.3479 118.875C65.305 118.663 65.2352 118.477 65.1385 118.316C65.0454 118.151 64.9218 118.022 64.7679 117.929C64.6139 117.836 64.4277 117.79 64.2093 117.79C63.9909 117.79 63.8047 117.836 63.6507 117.929C63.5003 118.022 63.3768 118.151 63.2801 118.316C63.187 118.477 63.1189 118.663 63.076 118.875C63.033 119.082 63.0115 119.304 63.0115 119.541ZM71.3582 121.109V116.688H72.9051V122.5H71.4495L71.3582 121.109ZM71.5301 119.917L71.9866 119.906C71.9866 120.292 71.9419 120.652 71.8523 120.985C71.7628 121.315 71.6285 121.601 71.4495 121.845C71.2705 122.085 71.0449 122.273 70.7728 122.409C70.5006 122.541 70.1801 122.607 69.8113 122.607C69.5285 122.607 69.2671 122.568 69.0271 122.489C68.7908 122.407 68.5867 122.28 68.4148 122.108C68.2466 121.932 68.1141 121.709 68.0174 121.437C67.9243 121.161 67.8777 120.83 67.8777 120.443V116.688H69.4246V120.454C69.4246 120.625 69.4443 120.771 69.4837 120.889C69.5267 121.007 69.5857 121.104 69.6609 121.179C69.7361 121.254 69.8239 121.308 69.9241 121.34C70.028 121.372 70.1425 121.388 70.2679 121.388C70.5866 121.388 70.8372 121.324 71.0198 121.195C71.206 121.066 71.3367 120.89 71.4119 120.668C71.4907 120.443 71.5301 120.192 71.5301 119.917ZM78.3353 114.25V122.5H76.7884V114.25H78.3353ZM78.115 119.39H77.6907C77.6943 118.986 77.748 118.613 77.8519 118.273C77.9557 117.929 78.1043 117.632 78.2977 117.381C78.491 117.127 78.722 116.93 78.9905 116.791C79.2627 116.651 79.5634 116.581 79.8929 116.581C80.1793 116.581 80.4389 116.622 80.6717 116.705C80.908 116.783 81.1103 116.912 81.2786 117.091C81.4505 117.267 81.583 117.498 81.6761 117.784C81.7692 118.071 81.8157 118.418 81.8157 118.826V122.5H80.2581V118.815C80.2581 118.558 80.2205 118.355 80.1453 118.208C80.0737 118.058 79.9681 117.952 79.8284 117.892C79.6924 117.827 79.5241 117.795 79.3235 117.795C79.1015 117.795 78.9118 117.836 78.7542 117.918C78.6002 118.001 78.4767 118.115 78.3836 118.262C78.2905 118.405 78.2225 118.574 78.1795 118.767C78.1365 118.96 78.115 119.168 78.115 119.39ZM86.1287 121.189V118.601C86.1287 118.414 86.0983 118.255 86.0374 118.123C85.9765 117.986 85.8816 117.881 85.7527 117.806C85.6274 117.73 85.4645 117.693 85.264 117.693C85.0921 117.693 84.9435 117.723 84.8182 117.784C84.6928 117.841 84.5962 117.926 84.5281 118.037C84.4601 118.144 84.4261 118.271 84.4261 118.418H82.8792C82.8792 118.171 82.9365 117.936 83.0511 117.714C83.1657 117.492 83.3322 117.297 83.5506 117.129C83.769 116.957 84.0286 116.823 84.3294 116.726C84.6338 116.629 84.9739 116.581 85.3499 116.581C85.8011 116.581 86.2021 116.656 86.553 116.807C86.9039 116.957 87.1797 117.183 87.3802 117.483C87.5843 117.784 87.6863 118.16 87.6863 118.611V121.098C87.6863 121.417 87.706 121.678 87.7454 121.882C87.7848 122.083 87.8421 122.258 87.9173 122.409V122.5H86.3543C86.2791 122.342 86.2218 122.146 86.1824 121.909C86.1466 121.669 86.1287 121.429 86.1287 121.189ZM86.3328 118.96L86.3436 119.836H85.4788C85.2747 119.836 85.0975 119.859 84.9471 119.906C84.7967 119.952 84.6731 120.019 84.5765 120.104C84.4798 120.187 84.4082 120.284 84.3616 120.395C84.3187 120.506 84.2972 120.627 84.2972 120.76C84.2972 120.892 84.3276 121.012 84.3885 121.12C84.4493 121.223 84.5371 121.306 84.6517 121.367C84.7662 121.424 84.9005 121.453 85.0545 121.453C85.2872 121.453 85.4896 121.406 85.6614 121.313C85.8333 121.22 85.9658 121.105 86.0589 120.969C86.1556 120.833 86.2057 120.704 86.2093 120.583L86.6175 121.238C86.5602 121.385 86.4814 121.537 86.3812 121.694C86.2845 121.852 86.1609 122 86.0105 122.14C85.8602 122.276 85.6793 122.389 85.4681 122.479C85.2568 122.564 85.0062 122.607 84.7161 122.607C84.3473 122.607 84.0125 122.534 83.7117 122.387C83.4145 122.237 83.1782 122.031 83.0027 121.77C82.8309 121.505 82.7449 121.204 82.7449 120.867C82.7449 120.563 82.8022 120.292 82.9168 120.056C83.0314 119.82 83.1997 119.621 83.4217 119.46C83.6473 119.295 83.9284 119.172 84.2649 119.089C84.6015 119.003 84.9918 118.96 85.4358 118.96H86.3328ZM90.7693 121.372L92.0584 116.688H93.6751L91.7146 122.5H90.7371L90.7693 121.372ZM89.8831 116.688L91.1775 121.377L91.2044 122.5H90.2215L88.261 116.688H89.8831ZM96.9676 122.607C96.5164 122.607 96.1118 122.536 95.7537 122.393C95.3956 122.246 95.0913 122.043 94.8406 121.786C94.5936 121.528 94.4038 121.229 94.2713 120.889C94.1388 120.545 94.0726 120.18 94.0726 119.793V119.578C94.0726 119.138 94.1352 118.735 94.2605 118.37C94.3859 118.004 94.5649 117.688 94.7977 117.419C95.034 117.15 95.3204 116.944 95.657 116.801C95.9936 116.654 96.3732 116.581 96.7957 116.581C97.2075 116.581 97.5727 116.649 97.8914 116.785C98.2101 116.921 98.4769 117.115 98.6917 117.365C98.9101 117.616 99.0748 117.917 99.1858 118.268C99.2968 118.615 99.3523 119.002 99.3523 119.428V120.072H94.7332V119.041H97.8323V118.923C97.8323 118.708 97.7929 118.516 97.7142 118.348C97.639 118.176 97.5244 118.04 97.3704 117.94C97.2164 117.84 97.0195 117.79 96.7796 117.79C96.5755 117.79 96.4 117.834 96.2532 117.924C96.1064 118.013 95.9865 118.139 95.8934 118.3C95.8038 118.461 95.7358 118.651 95.6893 118.869C95.6463 119.084 95.6248 119.32 95.6248 119.578V119.793C95.6248 120.026 95.657 120.241 95.7215 120.438C95.7895 120.634 95.8844 120.805 96.0062 120.948C96.1315 121.091 96.2819 121.202 96.4573 121.281C96.6364 121.36 96.8387 121.399 97.0643 121.399C97.3436 121.399 97.6032 121.345 97.8431 121.238C98.0866 121.127 98.296 120.96 98.4715 120.738L99.2234 121.555C99.1017 121.73 98.9352 121.898 98.7239 122.06C98.5162 122.221 98.2656 122.353 97.972 122.457C97.6784 122.557 97.3436 122.607 96.9676 122.607ZM104.487 117.929V122.5H102.94V116.688H104.39L104.487 117.929ZM104.262 119.39H103.843C103.843 118.96 103.898 118.574 104.009 118.23C104.12 117.883 104.276 117.587 104.476 117.344C104.677 117.097 104.915 116.909 105.191 116.78C105.47 116.647 105.782 116.581 106.125 116.581C106.397 116.581 106.646 116.62 106.872 116.699C107.097 116.778 107.291 116.903 107.452 117.075C107.617 117.247 107.742 117.474 107.828 117.757C107.917 118.04 107.962 118.386 107.962 118.794V122.5H106.405V118.789C106.405 118.531 106.369 118.33 106.297 118.187C106.226 118.044 106.12 117.944 105.98 117.886C105.844 117.825 105.676 117.795 105.475 117.795C105.268 117.795 105.087 117.836 104.933 117.918C104.783 118.001 104.657 118.115 104.557 118.262C104.46 118.405 104.387 118.574 104.337 118.767C104.287 118.96 104.262 119.168 104.262 119.39ZM108.891 119.653V119.541C108.891 119.114 108.952 118.722 109.074 118.364C109.196 118.003 109.373 117.689 109.606 117.424C109.839 117.159 110.125 116.953 110.465 116.807C110.805 116.656 111.196 116.581 111.636 116.581C112.076 116.581 112.469 116.656 112.812 116.807C113.156 116.953 113.444 117.159 113.677 117.424C113.913 117.689 114.092 118.003 114.214 118.364C114.336 118.722 114.397 119.114 114.397 119.541V119.653C114.397 120.076 114.336 120.468 114.214 120.83C114.092 121.188 113.913 121.501 113.677 121.77C113.444 122.035 113.158 122.24 112.818 122.387C112.478 122.534 112.087 122.607 111.647 122.607C111.206 122.607 110.814 122.534 110.471 122.387C110.13 122.24 109.842 122.035 109.606 121.77C109.373 121.501 109.196 121.188 109.074 120.83C108.952 120.468 108.891 120.076 108.891 119.653ZM110.438 119.541V119.653C110.438 119.897 110.46 120.124 110.503 120.335C110.546 120.547 110.614 120.733 110.707 120.894C110.804 121.052 110.929 121.175 111.083 121.265C111.237 121.354 111.425 121.399 111.647 121.399C111.862 121.399 112.046 121.354 112.2 121.265C112.354 121.175 112.478 121.052 112.571 120.894C112.664 120.733 112.732 120.547 112.775 120.335C112.821 120.124 112.845 119.897 112.845 119.653V119.541C112.845 119.304 112.821 119.082 112.775 118.875C112.732 118.663 112.662 118.477 112.565 118.316C112.472 118.151 112.349 118.022 112.195 117.929C112.041 117.836 111.854 117.79 111.636 117.79C111.418 117.79 111.231 117.836 111.077 117.929C110.927 118.022 110.804 118.151 110.707 118.316C110.614 118.477 110.546 118.663 110.503 118.875C110.46 119.082 110.438 119.304 110.438 119.541ZM57.345 134.399C57.5348 134.399 57.7031 134.363 57.8499 134.292C57.9967 134.216 58.1113 134.112 58.1937 133.98C58.2796 133.844 58.3243 133.685 58.3279 133.502H59.7835C59.7799 133.91 59.6707 134.274 59.4559 134.592C59.241 134.907 58.9528 135.156 58.5911 135.339C58.2295 135.518 57.8248 135.607 57.3772 135.607C56.9261 135.607 56.5322 135.532 56.1956 135.382C55.8626 135.231 55.5851 135.024 55.3631 134.759C55.1411 134.49 54.9746 134.179 54.8636 133.824C54.7526 133.466 54.6971 133.083 54.6971 132.675V132.519C54.6971 132.107 54.7526 131.724 54.8636 131.37C54.9746 131.012 55.1411 130.7 55.3631 130.435C55.5851 130.167 55.8626 129.957 56.1956 129.807C56.5286 129.656 56.9189 129.581 57.3665 129.581C57.8427 129.581 58.2599 129.672 58.618 129.855C58.9796 130.038 59.2625 130.299 59.4666 130.639C59.6743 130.976 59.7799 131.375 59.7835 131.837H58.3279C58.3243 131.644 58.2832 131.468 58.2044 131.311C58.1292 131.153 58.0182 131.028 57.8714 130.935C57.7282 130.838 57.5509 130.79 57.3396 130.79C57.1141 130.79 56.9297 130.838 56.7864 130.935C56.6432 131.028 56.5322 131.157 56.4534 131.321C56.3746 131.482 56.3191 131.667 56.2869 131.875C56.2583 132.079 56.2439 132.293 56.2439 132.519V132.675C56.2439 132.9 56.2583 133.117 56.2869 133.325C56.3156 133.532 56.3693 133.717 56.448 133.878C56.5304 134.039 56.6432 134.166 56.7864 134.259C56.9297 134.352 57.1159 134.399 57.345 134.399ZM60.4334 132.653V132.541C60.4334 132.114 60.4943 131.722 60.616 131.364C60.7378 131.003 60.915 130.689 61.1478 130.424C61.3805 130.159 61.667 129.953 62.0071 129.807C62.3473 129.656 62.7376 129.581 63.178 129.581C63.6185 129.581 64.0105 129.656 64.3543 129.807C64.698 129.953 64.9863 130.159 65.219 130.424C65.4554 130.689 65.6344 131.003 65.7562 131.364C65.8779 131.722 65.9388 132.114 65.9388 132.541V132.653C65.9388 133.076 65.8779 133.468 65.7562 133.83C65.6344 134.188 65.4554 134.501 65.219 134.77C64.9863 135.035 64.6998 135.24 64.3597 135.387C64.0195 135.534 63.6292 135.607 63.1888 135.607C62.7483 135.607 62.3563 135.534 62.0125 135.387C61.6723 135.24 61.3841 135.035 61.1478 134.77C60.915 134.501 60.7378 134.188 60.616 133.83C60.4943 133.468 60.4334 133.076 60.4334 132.653ZM61.9803 132.541V132.653C61.9803 132.897 62.0018 133.124 62.0447 133.335C62.0877 133.547 62.1557 133.733 62.2488 133.894C62.3455 134.052 62.4708 134.175 62.6248 134.265C62.7788 134.354 62.9668 134.399 63.1888 134.399C63.4036 134.399 63.588 134.354 63.742 134.265C63.896 134.175 64.0195 134.052 64.1126 133.894C64.2057 133.733 64.2737 133.547 64.3167 133.335C64.3632 133.124 64.3865 132.897 64.3865 132.653V132.541C64.3865 132.304 64.3632 132.082 64.3167 131.875C64.2737 131.663 64.2039 131.477 64.1072 131.316C64.0141 131.151 63.8906 131.022 63.7366 130.929C63.5827 130.836 63.3965 130.79 63.178 130.79C62.9596 130.79 62.7734 130.836 62.6194 130.929C62.469 131.022 62.3455 131.151 62.2488 131.316C62.1557 131.477 62.0877 131.663 62.0447 131.875C62.0018 132.082 61.9803 132.304 61.9803 132.541ZM68.4041 130.929V135.5H66.8572V129.688H68.3074L68.4041 130.929ZM68.1785 132.39H67.7596C67.7596 131.96 67.8151 131.574 67.9261 131.23C68.0371 130.883 68.1928 130.587 68.3934 130.344C68.5939 130.097 68.832 129.909 69.1077 129.78C69.387 129.647 69.6985 129.581 70.0423 129.581C70.3144 129.581 70.5633 129.62 70.7889 129.699C71.0145 129.778 71.2078 129.903 71.3689 130.075C71.5337 130.247 71.659 130.474 71.7449 130.757C71.8344 131.04 71.8792 131.386 71.8792 131.794V135.5H70.3216V131.789C70.3216 131.531 70.2858 131.33 70.2142 131.187C70.1425 131.044 70.0369 130.944 69.8973 130.886C69.7612 130.825 69.5929 130.795 69.3924 130.795C69.1847 130.795 69.0039 130.836 68.8499 130.918C68.6995 131.001 68.5742 131.115 68.4739 131.262C68.3772 131.405 68.3038 131.574 68.2537 131.767C68.2036 131.96 68.1785 132.168 68.1785 132.39ZM75.9021 129.688V130.784H72.5184V129.688H75.9021ZM73.3563 128.254H74.9031V133.749C74.9031 133.917 74.9246 134.046 74.9676 134.136C75.0141 134.225 75.0822 134.288 75.1717 134.324C75.2612 134.356 75.374 134.372 75.5101 134.372C75.6067 134.372 75.6927 134.368 75.7679 134.361C75.8466 134.351 75.9129 134.34 75.9666 134.329L75.972 135.468C75.8395 135.511 75.6963 135.545 75.5423 135.57C75.3883 135.595 75.2182 135.607 75.032 135.607C74.6919 135.607 74.3947 135.552 74.1404 135.441C73.8898 135.326 73.6964 135.144 73.5604 134.893C73.4243 134.642 73.3563 134.313 73.3563 133.905V128.254ZM79.9197 134.189V131.601C79.9197 131.414 79.8893 131.255 79.8284 131.123C79.7675 130.986 79.6727 130.881 79.5438 130.806C79.4184 130.73 79.2555 130.693 79.055 130.693C78.8831 130.693 78.7345 130.723 78.6092 130.784C78.4839 130.841 78.3872 130.926 78.3191 131.037C78.2511 131.144 78.2171 131.271 78.2171 131.418H76.6702C76.6702 131.171 76.7275 130.936 76.8421 130.714C76.9567 130.492 77.1232 130.297 77.3416 130.129C77.56 129.957 77.8196 129.823 78.1204 129.726C78.4248 129.629 78.7649 129.581 79.1409 129.581C79.5921 129.581 79.9931 129.656 80.344 129.807C80.695 129.957 80.9707 130.183 81.1712 130.483C81.3753 130.784 81.4773 131.16 81.4773 131.611V134.098C81.4773 134.417 81.497 134.678 81.5364 134.882C81.5758 135.083 81.6331 135.258 81.7083 135.409V135.5H80.1453C80.0701 135.342 80.0128 135.146 79.9734 134.909C79.9376 134.669 79.9197 134.429 79.9197 134.189ZM80.1238 131.96L80.1346 132.836H79.2698C79.0657 132.836 78.8885 132.859 78.7381 132.906C78.5877 132.952 78.4642 133.019 78.3675 133.104C78.2708 133.187 78.1992 133.284 78.1526 133.395C78.1097 133.506 78.0882 133.627 78.0882 133.76C78.0882 133.892 78.1186 134.012 78.1795 134.12C78.2404 134.223 78.3281 134.306 78.4427 134.367C78.5573 134.424 78.6915 134.453 78.8455 134.453C79.0783 134.453 79.2806 134.406 79.4524 134.313C79.6243 134.22 79.7568 134.105 79.8499 133.969C79.9466 133.833 79.9967 133.704 80.0003 133.583L80.4085 134.238C80.3512 134.385 80.2724 134.537 80.1722 134.694C80.0755 134.852 79.952 135 79.8016 135.14C79.6512 135.276 79.4703 135.389 79.2591 135.479C79.0478 135.564 78.7972 135.607 78.5071 135.607C78.1383 135.607 77.8035 135.534 77.5027 135.387C77.2055 135.237 76.9692 135.031 76.7938 134.77C76.6219 134.505 76.5359 134.204 76.5359 133.867C76.5359 133.563 76.5932 133.292 76.7078 133.056C76.8224 132.82 76.9907 132.621 77.2127 132.46C77.4383 132.295 77.7194 132.172 78.056 132.089C78.3925 132.003 78.7828 131.96 79.2269 131.96H80.1238ZM85.0706 134.399C85.2604 134.399 85.4287 134.363 85.5755 134.292C85.7223 134.216 85.8369 134.112 85.9192 133.98C86.0052 133.844 86.0499 133.685 86.0535 133.502H87.5091C87.5055 133.91 87.3963 134.274 87.1814 134.592C86.9666 134.907 86.6784 135.156 86.3167 135.339C85.955 135.518 85.5504 135.607 85.1028 135.607C84.6517 135.607 84.2578 135.532 83.9212 135.382C83.5882 135.231 83.3107 135.024 83.0887 134.759C82.8667 134.49 82.7002 134.179 82.5892 133.824C82.4782 133.466 82.4227 133.083 82.4227 132.675V132.519C82.4227 132.107 82.4782 131.724 82.5892 131.37C82.7002 131.012 82.8667 130.7 83.0887 130.435C83.3107 130.167 83.5882 129.957 83.9212 129.807C84.2542 129.656 84.6445 129.581 85.0921 129.581C85.5683 129.581 85.9855 129.672 86.3436 129.855C86.7052 130.038 86.9881 130.299 87.1922 130.639C87.3999 130.976 87.5055 131.375 87.5091 131.837H86.0535C86.0499 131.644 86.0088 131.468 85.93 131.311C85.8548 131.153 85.7438 131.028 85.597 130.935C85.4537 130.838 85.2765 130.79 85.0652 130.79C84.8396 130.79 84.6552 130.838 84.512 130.935C84.3688 131.028 84.2578 131.157 84.179 131.321C84.1002 131.482 84.0447 131.667 84.0125 131.875C83.9839 132.079 83.9695 132.293 83.9695 132.519V132.675C83.9695 132.9 83.9839 133.117 84.0125 133.325C84.0411 133.532 84.0949 133.717 84.1736 133.878C84.256 134.039 84.3688 134.166 84.512 134.259C84.6552 134.352 84.8414 134.399 85.0706 134.399ZM91.2527 129.688V130.784H87.8689V129.688H91.2527ZM88.7068 128.254H90.2537V133.749C90.2537 133.917 90.2752 134.046 90.3182 134.136C90.3647 134.225 90.4327 134.288 90.5223 134.324C90.6118 134.356 90.7246 134.372 90.8606 134.372C90.9573 134.372 91.0433 134.368 91.1185 134.361C91.1972 134.351 91.2635 134.34 91.3172 134.329L91.3226 135.468C91.1901 135.511 91.0468 135.545 90.8929 135.57C90.7389 135.595 90.5688 135.607 90.3826 135.607C90.0424 135.607 89.7452 135.552 89.491 135.441C89.2404 135.326 89.047 135.144 88.9109 134.893C88.7749 134.642 88.7068 134.313 88.7068 133.905V128.254ZM95.2757 133.894C95.2757 133.783 95.2435 133.683 95.179 133.593C95.1146 133.504 94.9946 133.421 94.8191 133.346C94.6473 133.267 94.3984 133.196 94.0726 133.131C93.7789 133.067 93.505 132.986 93.2508 132.89C93.0001 132.789 92.7817 132.669 92.5955 132.53C92.4129 132.39 92.2697 132.225 92.1658 132.036C92.062 131.842 92.0101 131.622 92.0101 131.375C92.0101 131.132 92.062 130.902 92.1658 130.688C92.2732 130.473 92.4254 130.283 92.6224 130.118C92.8229 129.95 93.0664 129.819 93.3528 129.726C93.6429 129.629 93.9687 129.581 94.3304 129.581C94.8353 129.581 95.2685 129.662 95.6302 129.823C95.9954 129.984 96.2747 130.206 96.4681 130.489C96.665 130.768 96.7635 131.087 96.7635 131.445H95.2166C95.2166 131.294 95.1844 131.16 95.1199 131.042C95.0591 130.92 94.9624 130.825 94.8299 130.757C94.701 130.686 94.5327 130.65 94.325 130.65C94.1531 130.65 94.0045 130.68 93.8792 130.741C93.7539 130.799 93.6572 130.877 93.5892 130.978C93.5247 131.074 93.4925 131.182 93.4925 131.3C93.4925 131.389 93.5104 131.47 93.5462 131.542C93.5856 131.61 93.6482 131.672 93.7342 131.729C93.8201 131.787 93.9311 131.84 94.0672 131.891C94.2068 131.937 94.3787 131.98 94.5828 132.02C95.0018 132.105 95.3759 132.218 95.7054 132.358C96.0348 132.494 96.2962 132.68 96.4896 132.917C96.6829 133.149 96.7796 133.455 96.7796 133.835C96.7796 134.093 96.7223 134.329 96.6077 134.544C96.4931 134.759 96.3284 134.947 96.1136 135.108C95.8987 135.265 95.6409 135.389 95.3401 135.479C95.0429 135.564 94.7081 135.607 94.3357 135.607C93.7951 135.607 93.3367 135.511 92.9607 135.317C92.5883 135.124 92.3055 134.879 92.1121 134.582C91.9223 134.281 91.8274 133.973 91.8274 133.658H93.2938C93.3009 133.869 93.3546 134.039 93.4549 134.168C93.5587 134.297 93.6894 134.39 93.847 134.447C94.0081 134.505 94.1818 134.533 94.368 134.533C94.5685 134.533 94.735 134.506 94.8675 134.453C95 134.395 95.1002 134.32 95.1683 134.227C95.2399 134.13 95.2757 134.019 95.2757 133.894ZM102.247 134.845L103.789 129.688H105.449L103.112 136.375C103.062 136.522 102.994 136.68 102.908 136.848C102.826 137.016 102.713 137.176 102.57 137.326C102.43 137.48 102.253 137.605 102.038 137.702C101.827 137.799 101.567 137.847 101.259 137.847C101.112 137.847 100.992 137.838 100.899 137.82C100.806 137.802 100.695 137.777 100.566 137.745V136.612C100.606 136.612 100.647 136.612 100.69 136.612C100.733 136.615 100.774 136.617 100.813 136.617C101.017 136.617 101.184 136.594 101.313 136.547C101.442 136.501 101.546 136.429 101.624 136.333C101.703 136.239 101.766 136.118 101.812 135.967L102.247 134.845ZM101.603 129.688L102.865 133.899L103.085 135.538L102.033 135.65L99.9432 129.688H101.603ZM108.666 135.607C108.215 135.607 107.81 135.536 107.452 135.393C107.094 135.246 106.79 135.043 106.539 134.786C106.292 134.528 106.102 134.229 105.97 133.889C105.837 133.545 105.771 133.18 105.771 132.793V132.578C105.771 132.138 105.833 131.735 105.959 131.37C106.084 131.004 106.263 130.688 106.496 130.419C106.732 130.15 107.019 129.944 107.355 129.801C107.692 129.654 108.071 129.581 108.494 129.581C108.906 129.581 109.271 129.649 109.59 129.785C109.908 129.921 110.175 130.115 110.39 130.365C110.608 130.616 110.773 130.917 110.884 131.268C110.995 131.615 111.051 132.002 111.051 132.428V133.072H106.431V132.041H109.531V131.923C109.531 131.708 109.491 131.516 109.412 131.348C109.337 131.176 109.223 131.04 109.069 130.94C108.915 130.84 108.718 130.79 108.478 130.79C108.274 130.79 108.098 130.834 107.951 130.924C107.805 131.013 107.685 131.139 107.592 131.3C107.502 131.461 107.434 131.651 107.387 131.869C107.345 132.084 107.323 132.32 107.323 132.578V132.793C107.323 133.026 107.355 133.241 107.42 133.438C107.488 133.634 107.583 133.805 107.704 133.948C107.83 134.091 107.98 134.202 108.156 134.281C108.335 134.36 108.537 134.399 108.762 134.399C109.042 134.399 109.301 134.345 109.541 134.238C109.785 134.127 109.994 133.96 110.17 133.738L110.922 134.555C110.8 134.73 110.633 134.898 110.422 135.06C110.214 135.221 109.964 135.353 109.67 135.457C109.377 135.557 109.042 135.607 108.666 135.607ZM114.778 129.688V130.784H111.394V129.688H114.778ZM112.232 128.254H113.779V133.749C113.779 133.917 113.801 134.046 113.844 134.136C113.89 134.225 113.958 134.288 114.048 134.324C114.137 134.356 114.25 134.372 114.386 134.372C114.483 134.372 114.569 134.368 114.644 134.361C114.723 134.351 114.789 134.34 114.843 134.329L114.848 135.468C114.715 135.511 114.572 135.545 114.418 135.57C114.264 135.595 114.094 135.607 113.908 135.607C113.568 135.607 113.271 135.552 113.016 135.441C112.766 135.326 112.572 135.144 112.436 134.893C112.3 134.642 112.232 134.313 112.232 133.905V128.254Z" fill="white"/>
</svg>
