<svg width="31" height="31" viewBox="0 0 31 31" fill="none" xmlns="http://www.w3.org/2000/svg">
<path d="M26.125 0C28.4032 0 30.25 1.84683 30.25 4.125V9.625C30.25 10.3844 29.6344 11 28.875 11C28.1156 11 27.5 10.3844 27.5 9.625V4.125C27.5 3.36561 26.8844 2.75 26.125 2.75H20.625C19.8656 2.75 19.25 2.13439 19.25 1.375C19.25 0.615615 19.8656 0 20.625 0H26.125Z" fill="#0F0F0F"/>
<path d="M28.875 19.25C29.6344 19.25 30.25 19.8656 30.25 20.625V26.125C30.25 28.4032 28.4032 30.25 26.125 30.25H20.625C19.8656 30.25 19.25 29.6344 19.25 28.875C19.25 28.1156 19.8656 27.5 20.625 27.5H26.125C26.8844 27.5 27.5 26.8844 27.5 26.125V20.625C27.5 19.8656 28.1156 19.25 28.875 19.25Z" fill="#0F0F0F"/>
<path d="M4.125 27.5H9.625C10.3844 27.5 11 28.1156 11 28.875C11 29.6344 10.3844 30.25 9.625 30.25H4.125C1.84683 30.25 0 28.4032 0 26.125V20.625C0 19.8656 0.615615 19.25 1.375 19.25C2.13439 19.25 2.75 19.8656 2.75 20.625V26.125C2.75 26.8844 3.36561 27.5 4.125 27.5Z" fill="#0F0F0F"/>
<path d="M1.375 11C0.615615 11 0 10.3844 0 9.625V4.125C0 1.84683 1.84683 0 4.125 0H9.625C10.3844 0 11 0.615615 11 1.375C11 2.13439 10.3844 2.75 9.625 2.75H4.125C3.36561 2.75 2.75 3.36561 2.75 4.125V9.625C2.75 10.3844 2.13439 11 1.375 11Z" fill="#0F0F0F"/>
<path fill-rule="evenodd" clip-rule="evenodd" d="M15.125 20.625C18.1625 20.625 20.625 18.1625 20.625 15.125C20.625 12.0874 18.1625 9.625 15.125 9.625C12.0874 9.625 9.625 12.0874 9.625 15.125C9.625 18.1625 12.0874 20.625 15.125 20.625ZM15.125 17.8938C13.5959 17.8938 12.3562 16.6541 12.3562 15.125C12.3562 13.5959 13.5959 12.3562 15.125 12.3562C16.6541 12.3562 17.8938 13.5959 17.8938 15.125C17.8938 16.6541 16.6541 17.8938 15.125 17.8938Z" fill="#0F0F0F"/>
</svg>
